<?xml version="1.0" standalone="yes"?>
<svg xmlns="http://www.w3.org/2000/svg" width="1885" height="959">
<path style="fill:#f0f0f0; stroke:none;" d="M0 0L0 959C2.39487 953.293 1 945.154 1 939L1 897L1 749L1 238L1 70L1 22C1 15.3141 2.59909 6.19397 0 0z"/>
<path style="fill:#777777; stroke:none;" d="M1 0L1 959L1884 959L1884 0L1 0z"/>
<path style="fill:#ffffff; stroke:none;" d="M1884 0L1884 959C1886.39 953.293 1885 945.154 1885 939L1885 897L1885 749L1885 238L1885 70L1885 22C1885 15.3141 1886.6 6.19391 1884 0z"/>
<path style="fill:#333333; stroke:none;" d="M840 77L835 77C836.478 76.0145 836.203 76 838 76L838 73L832 70L832 97L835 97C835.674 94.7027 835.965 94.2259 838 93L838 90L835 90C836.801 89.4381 838.122 89.1758 840 89C840.03 97.5789 844.699 98.3503 850 104L836 104L836 115C843.507 115 850.487 113.654 851 123L837 123L837 128C828.766 128.456 830 134.238 830 141L830 179L1778 179C1776.41 170.459 1777 161.658 1777 153C1777 144.661 1776.47 136.226 1778 128L1774 128L1774 122L1744 122L1744 128L867 128L867 123L854 123L854 115L867 115L867 104L852 104C854.953 101.206 858.617 99.2733 862 97L861 92L863 92L863 96L868 96C868.667 90.7258 868.978 86.269 868 81L863 81L863 85L861 85C861.529 78.0619 865.674 75.07 860.031 68.6373C856.214 64.286 844.659 63.6349 841.028 68.652C839.439 70.8475 840.002 74.451 840 77z"/>
<path style="fill:#4b5858; stroke:none;" d="M848 66C849.769 66.7789 851.036 66.9124 853 67C851.231 66.221 849.964 66.0876 848 66z"/>
<path style="fill:#647d7d; stroke:none;" d="M844 67C847.959 68.6612 852.737 68 857 68C853.041 66.3389 848.263 67 844 67z"/>
<path style="fill:#96c7c7; stroke:none;" d="M841 69C846.469 71.295 854.099 70 860 70C854.531 67.705 846.901 69 841 69z"/>
<path style="fill:#98caca; stroke:none;" d="M833 71L833 96C835.413 90.2498 835.413 76.7502 833 71z"/>
<path style="fill:#4c5858; stroke:none;" d="M848 72L848 95C850.284 89.5575 850.284 77.4425 848 72M852 72L852 95C854.284 89.5575 854.284 77.4425 852 72M855 72L855 95C857.284 89.5575 857.284 77.4425 855 72z"/>
<path style="fill:#98caca; stroke:none;" d="M836 74L837 75L836 74z"/>
<path style="fill:#759595; stroke:none;" d="M861 74L862 75L861 74z"/>
<path style="fill:#96c7c7; stroke:none;" d="M862 75L863 76L862 75z"/>
<path style="fill:#759595; stroke:none;" d="M861 76L861 78L863 78C862.455 76.365 862.635 76.545 861 76z"/>
<path style="fill:#333333; stroke:none;" d="M862 76L863 77L862 76z"/>
<path style="fill:#777777; stroke:none;" d="M863 76L864 77L863 76z"/>
<path style="fill:#5d7171; stroke:none;" d="M835 78L835 80C836.878 79.8242 838.199 79.5619 840 79C838.231 78.221 836.964 78.0876 835 78z"/>
<path style="fill:#769797; stroke:none;" d="M840 78L839 80L841 80C841 78.1466 841.3 78.6499 840 78z"/>
<path style="fill:#90bebe; stroke:none;" d="M844 78C842.777 79.1952 842.58 79.3164 841 80L841 84C843.267 82.1271 844.623 80.9609 844 78z"/>
<path style="fill:#772222; stroke:none;" d="M836 81L836 85C836.71 83.2405 836.71 82.7595 836 81z"/>
<path style="fill:#bb1111; stroke:none;" d="M837 81L837 85C837.71 83.2404 837.71 82.7595 837 81z"/>
<path style="fill:#ff0000; stroke:none;" d="M838 81L838 85C838.71 83.2405 838.71 82.7595 838 81z"/>
<path style="fill:#bb1111; stroke:none;" d="M839 81L839 85C839.71 83.2404 839.71 82.7595 839 81z"/>
<path style="fill:#7fa5a5; stroke:none;" d="M844 81C842.652 82.7676 841.878 83.9826 841 86C843.015 84.3558 844.098 83.5872 844 81z"/>
<path style="fill:#6e8c8c; stroke:none;" d="M844 83C842.814 84.1861 842.472 84.5839 842 86C844.251 85.5267 845.118 85.1395 844 83z"/>
<path style="fill:#96c7c7; stroke:none;" d="M865 84L866 85L865 84z"/>
<path style="fill:#647d7d; stroke:none;" d="M864 85L864 91C864.951 88.7148 864.951 87.2853 864 85z"/>
<path style="fill:#333333; stroke:none;" d="M865 85L866 86L865 85z"/>
<path style="fill:#759696; stroke:none;" d="M866 85L866 91C866.951 88.7147 866.951 87.2853 866 85z"/>
<path style="fill:#90bebe; stroke:none;" d="M835 88L839 87C836.953 86.2489 836.404 86.3444 835 88z"/>
<path style="fill:#7fa5a5; stroke:none;" d="M838 88C840.092 87.5944 840.02 87.7833 841 86C839.42 86.6838 839.223 86.8045 838 88z"/>
<path style="fill:#556666; stroke:none;" d="M844.333 86.6667C844.278 86.7223 844.222 87.7778 844.667 87.3333C844.722 87.2778 844.778 86.2222 844.333 86.6667z"/>
<path style="fill:#96c7c7; stroke:none;" d="M865 86L865 90C865.71 88.2406 865.71 87.7594 865 86z"/>
<path style="fill:#333333; stroke:none;" d="M865 90L866 91L865 90z"/>
<path style="fill:#98caca; stroke:none;" d="M836 91L837 92L836 91z"/>
<path style="fill:#96c7c7; stroke:none;" d="M865 91L866 92L865 91z"/>
<path style="fill:#647d7d; stroke:none;" d="M864 92L865 93L864 92z"/>
<path style="fill:#759696; stroke:none;" d="M866 92L867 93L866 92z"/>
<path style="fill:#647d7d; stroke:none;" d="M864 94L865 95L864 94z"/>
<path style="fill:#96c7c7; stroke:none;" d="M865 94L866 95L865 94z"/>
<path style="fill:#759696; stroke:none;" d="M866 94L867 95L866 94z"/>
<path style="fill:#337f7f; stroke:none;" d="M844 97C848.471 98.8763 854.183 98 859 98C854.529 96.1237 848.817 97 844 97z"/>
<path style="fill:#33cccc; stroke:none;" d="M845 98C848.959 99.6612 853.736 99 858 99C854.041 97.3389 849.263 98 845 98z"/>
<path style="fill:#338080; stroke:none;" d="M847 99C849.89 100.213 852.874 99.9982 856 100C853.11 98.787 850.126 99.0018 847 99z"/>
<path style="fill:#111100; stroke:none;" d="M837 105L837 114C838.256 111.006 838.256 107.994 837 105z"/>
<path style="fill:#222200; stroke:none;" d="M838 105L838 114C839.256 111.006 839.256 107.994 838 105z"/>
<path style="fill:#333300; stroke:none;" d="M839 105L839 114C840.256 111.006 840.256 107.994 839 105z"/>
<path style="fill:#444400; stroke:none;" d="M840 105L840 114C841.256 111.006 841.256 107.994 840 105z"/>
<path style="fill:#555500; stroke:none;" d="M841 105L841 114C842.256 111.006 842.256 107.994 841 105z"/>
<path style="fill:#666600; stroke:none;" d="M842 105L842 114C843.256 111.006 843.256 107.994 842 105z"/>
<path style="fill:#777700; stroke:none;" d="M843 105L843 114C844.256 111.006 844.256 107.994 843 105z"/>
<path style="fill:#888800; stroke:none;" d="M844 105L844 114C845.256 111.006 845.256 107.994 844 105z"/>
<path style="fill:#999900; stroke:none;" d="M845 105L845 114C846.256 111.006 846.256 107.994 845 105z"/>
<path style="fill:#aaaa00; stroke:none;" d="M846 105L846 114C847.256 111.006 847.256 107.994 846 105z"/>
<path style="fill:#bbbb00; stroke:none;" d="M847 105L847 114C848.256 111.006 848.256 107.994 847 105z"/>
<path style="fill:#cccc00; stroke:none;" d="M848 105L848 114C849.256 111.006 849.256 107.994 848 105z"/>
<path style="fill:#dddd00; stroke:none;" d="M849 105L849 114C850.256 111.006 850.256 107.994 849 105z"/>
<path style="fill:#eeee00; stroke:none;" d="M850 105L850 114C851.256 111.006 851.256 107.994 850 105z"/>
<path style="fill:#ffff00; stroke:none;" d="M851 105L851 114C852.256 111.006 852.256 107.994 851 105z"/>
<path style="fill:#f0f000; stroke:none;" d="M852 105L852 114C853.256 111.006 853.256 107.994 852 105z"/>
<path style="fill:#e0e000; stroke:none;" d="M853 105L853 114C854.256 111.006 854.256 107.994 853 105z"/>
<path style="fill:#d0d000; stroke:none;" d="M854 105L854 114C855.256 111.006 855.256 107.994 854 105z"/>
<path style="fill:#c0c000; stroke:none;" d="M855 105L855 114C856.256 111.006 856.256 107.994 855 105z"/>
<path style="fill:#b0b000; stroke:none;" d="M856 105L856 114C857.256 111.006 857.256 107.994 856 105z"/>
<path style="fill:#a0a000; stroke:none;" d="M857 105L857 114C858.256 111.006 858.256 107.994 857 105z"/>
<path style="fill:#909000; stroke:none;" d="M858 105L858 114C859.256 111.006 859.256 107.994 858 105z"/>
<path style="fill:#808000; stroke:none;" d="M859 105L859 114C860.256 111.006 860.256 107.994 859 105z"/>
<path style="fill:#707000; stroke:none;" d="M860 105L860 114C861.256 111.006 861.256 107.994 860 105z"/>
<path style="fill:#606000; stroke:none;" d="M861 105L861 114C862.256 111.006 862.256 107.994 861 105z"/>
<path style="fill:#505000; stroke:none;" d="M862 105L862 114C863.256 111.006 863.256 107.994 862 105z"/>
<path style="fill:#404000; stroke:none;" d="M863 105L863 114C864.256 111.006 864.256 107.994 863 105z"/>
<path style="fill:#303000; stroke:none;" d="M864 105L864 114C865.256 111.006 865.256 107.994 864 105z"/>
<path style="fill:#202000; stroke:none;" d="M865 105L865 114C866.256 111.006 866.256 107.994 865 105z"/>
<path style="fill:#111111; stroke:none;" d="M1745 123L1745 127L1748 127L1748 123L1745 123z"/>
<path style="fill:#474747; stroke:none;" d="M1751 123L1751 127L1754 127L1754 123L1751 123z"/>
<path style="fill:#626262; stroke:none;" d="M1754 123L1754 127L1757 127L1757 123L1754 123z"/>
<path style="fill:#7e7e7e; stroke:none;" d="M1757 123L1757 127L1762 127L1762 123L1757 123z"/>
<path style="fill:#636363; stroke:none;" d="M1762 123L1762 127L1765 127L1765 123L1762 123z"/>
<path style="fill:#484848; stroke:none;" d="M1765 123L1765 127L1768 127L1768 123L1765 123z"/>
<path style="fill:#1b1b1b; stroke:none;" d="M1770 123L1770 127L1773 127L1773 123L1770 123z"/>
<path style="fill:#111111; stroke:none;" d="M838 124L838 128L841 128L841 124L838 124z"/>
<path style="fill:#474747; stroke:none;" d="M844 124L844 128L847 128L847 124L844 124z"/>
<path style="fill:#626262; stroke:none;" d="M847 124L847 128L850 128L850 124L847 124z"/>
<path style="fill:#7d7d7d; stroke:none;" d="M850 124L850 128L855 128L855 124L850 124z"/>
<path style="fill:#636363; stroke:none;" d="M855 124L855 128L858 128L858 124L855 124z"/>
<path style="fill:#484848; stroke:none;" d="M858 124L858 128L861 128L861 124L858 124z"/>
<path style="fill:#1b1b1b; stroke:none;" d="M863 124L863 128L866 128L866 124L863 124z"/>
<path style="fill:#777777; stroke:none;" d="M832 130L832 177L1775 177L1775 130L832 130z"/>
<path style="fill:#333333; stroke:none;" d="M839 180L839 186L869 186L869 180L839 180M1744 180L1744 186L1774 186L1774 180L1744 180z"/>
<path style="fill:#111111; stroke:none;" d="M840 181L840 185L843 185L843 181L840 181z"/>
<path style="fill:#474747; stroke:none;" d="M846 181L846 185L849 185L849 181L846 181z"/>
<path style="fill:#626262; stroke:none;" d="M849 181L849 185L852 185L852 181L849 181z"/>
<path style="fill:#7e7e7e; stroke:none;" d="M852 181L852 185L857 185L857 181L852 181z"/>
<path style="fill:#636363; stroke:none;" d="M857 181L857 185L860 185L860 181L857 181z"/>
<path style="fill:#484848; stroke:none;" d="M860 181L860 185L863 185L863 181L860 181z"/>
<path style="fill:#1b1b1b; stroke:none;" d="M865 181L865 185L868 185L868 181L865 181z"/>
<path style="fill:#040404; stroke:none;" d="M1084 181L1084 213C1084 217.716 1084.95 223.112 1082 227C1083.16 229.217 1084.09 230.394 1086 232L1089 227C1084.77 224.26 1086 218.571 1086 214L1086 181L1084 181M1238 181L1238 213C1238 217.716 1238.95 223.112 1236 227C1237.16 229.217 1238.09 230.394 1240 232L1243 227C1238.77 224.26 1240 218.571 1240 214L1240 181L1238 181M1387 181L1387 213C1387 217.716 1387.95 223.112 1385 227C1386.16 229.217 1387.09 230.394 1389 232L1392 227C1387.77 224.26 1389 218.571 1389 214L1389 181L1387 181M1543 181L1543 213C1543 217.716 1543.95 223.112 1541 227C1542.16 229.217 1543.09 230.394 1545 232L1548 227C1543.77 224.26 1545 218.571 1545 214L1545 181L1543 181M1699 181L1699 213C1699 217.716 1699.95 223.112 1697 227C1698.16 229.217 1699.09 230.394 1701 232L1704 227C1699.77 224.26 1701 218.571 1701 214L1701 181L1699 181z"/>
<path style="fill:#111111; stroke:none;" d="M1745 181L1745 185L1748 185L1748 181L1745 181z"/>
<path style="fill:#474747; stroke:none;" d="M1751 181L1751 185L1754 185L1754 181L1751 181z"/>
<path style="fill:#626262; stroke:none;" d="M1754 181L1754 185L1757 185L1757 181L1754 181z"/>
<path style="fill:#7e7e7e; stroke:none;" d="M1757 181L1757 185L1762 185L1762 181L1757 181z"/>
<path style="fill:#636363; stroke:none;" d="M1762 181L1762 185L1765 185L1765 181L1762 181z"/>
<path style="fill:#484848; stroke:none;" d="M1765 181L1765 185L1768 185L1768 181L1765 181z"/>
<path style="fill:#1b1b1b; stroke:none;" d="M1770 181L1770 185L1773 185L1773 181L1770 181z"/>
<path style="fill:#333333; stroke:none;" d="M88 213L88 487L149 487L149 410L149 387C149 383.152 148.416 378.686 149.728 375C151.774 369.251 156.9 363.926 160.421 359C169.86 345.797 181.772 332.529 189 318L149 318L149 287C149 282.002 148.029 275.773 149.728 271C151.774 265.251 156.9 259.926 160.421 255C169.86 241.797 181.772 228.529 189 214L88 213M255 213L255 487L316 487L316 411L316 389C316 385.152 315.416 380.686 316.728 377C318.774 371.251 323.9 365.926 327.421 361C336.86 347.797 348.772 334.529 356 320L316 320L316 289C316 284.002 315.029 277.773 316.728 273C318.774 267.251 323.9 261.926 327.421 257C336.86 243.797 348.772 230.529 356 216L316 216L316 213L255 213z"/>
<path style="fill:#747474; stroke:none;" d="M89 214L89 233L148 233L148 214L89 214M256 214L256 233L315 233L315 214L256 214z"/>
<path style="fill:#777777; stroke:none;" d="M149 215L149 268C155.31 262.789 159.675 254.639 164.421 248C171.852 237.606 182.042 226.786 187 215L149 215M316 217L316 270C322.31 264.789 326.675 256.639 331.421 250C338.852 239.606 349.042 228.786 354 217L316 217z"/>
<path style="fill:#6a6a6a; stroke:none;" d="M89 233L89 255L148 255L148 233L89 233M256 233L256 255L315 255L315 233L256 233z"/>
<path style="fill:#333333; stroke:none;" d="M1034 236L1034 319L1082 319L1082 403L970 403C976.014 401.222 982.757 402 989 402L989 394L951 394L951 402L969 402C957.92 405.275 943.541 403 932 403L858 403L613 403L613 330C595.378 330 577.623 329.362 560.015 330.018C555.542 330.185 551.549 331.95 547 332L547 360L555 360L555 386C555 389.622 555.823 394.547 553.972 397.826C551.883 401.528 547.919 402.715 544 403L544 407C539.382 404.343 531.707 399.965 529.603 394.829C527.392 389.432 529 380.774 529 375L529 330C511.378 330 493.623 329.362 476.015 330.018C471.542 330.185 467.549 331.95 463 332L463 344L459 344L459 332L449 332L449 344C441.891 343.513 439.961 336.536 433 336L437 335L437 330C433.724 329.381 429.351 328.043 426.111 329.5C422.611 331.074 424.13 334.385 427 335C424.894 335.644 423.205 335.906 421 336C419.921 332.193 417.079 332.193 416 336C408.809 337.22 406.766 348.368 411.879 353.397C413.953 355.437 417.342 354.991 420 355L420 360C419.014 358.521 419 358.797 419 357L416 357L414 363L438 363L435 357L432 357L432 360C431.438 358.199 431.176 356.878 431 355C433.294 354.973 435.751 355.138 437.828 353.972C442.378 351.417 443.26 347.442 449 347L449 360L459 360L459 347L463 347L463 360L471 360L471 904L529 904L529 900L532 905C540.396 897.241 538.527 875.02 533 866C531.16 867.717 530.651 868.566 530 871C528.222 864.986 529 858.243 529 852C533.798 855.868 539.237 861.769 545.286 863.525C548.336 864.411 551.857 864 555 864L555 904L613 904L613 900L616 905C624.396 897.241 622.527 875.02 617 866C615.16 867.717 614.651 868.566 614 871C613.278 868.582 613.052 866.528 613 864L1583 864C1577.27 865.693 1570.94 865 1565 865L1565 873L1603 873L1603 865L1584 865C1596.2 861.395 1612.29 864 1625 864L1709 864L1709 319L1748 319L1748 236L1646 236L1646 319L1694 319L1694 851L1584 851C1590.01 849.222 1596.76 850 1603 850L1603 842L1565 842L1565 850L1583 850C1573.6 852.779 1561.78 851 1552 851L1489 851L1284 851L613 851L613 752L1401 752C1395.27 753.693 1388.94 753 1383 753L1383 761L1421 761L1421 753L1402 753C1407.73 751.308 1414.06 752 1420 752L1450 752C1485.34 752 1520.74 753 1556 753L1556 319L1595 319L1595 236L1493 236L1493 319L1541 319L1541 739L1402 739C1408.01 737.222 1414.76 738 1421 738L1421 730L1383 730L1383 738L1401 738C1393 740.364 1383.31 739 1375 739L1324 739L1158 739L613 739L613 640L1243 640C1237.27 641.693 1230.94 641 1225 641L1225 649L1263 649L1263 641L1244 641C1249.73 639.308 1256.06 640 1262 640L1293 640C1329.67 640 1366.41 641 1403 641L1403 319L1442 319L1442 236L1340 236L1340 319L1388 319L1388 627L1244 627C1250.01 625.222 1256.76 626 1263 626L1263 618L1225 618L1225 626L1243 626C1236.13 628.03 1228.13 627 1221 627L1181 627L1048 627L613 627L613 528L1064 528C1058.27 529.693 1051.94 529 1046 529L1046 537L1084 537L1084 529L1065 529C1071.58 527.054 1079.17 528 1086 528L1124 528L1251 528L1251 319L1289 319L1289 236L1187 236L1187 319L1236 319L1236 515L1065 515C1071.01 513.222 1077.76 514 1084 514L1084 506L1046 506L1046 514L1064 514C1058.56 515.607 1052.64 515 1047 515L1019 515L924 515L613 515L613 416L969 416C963.274 417.693 956.943 417 951 417L951 425L989 425L989 417L970 417C982.196 413.395 998.289 416 1011 416L1097 416L1097 319L1136 319L1136 236L1034 236z"/>
<path style="fill:#777777; stroke:none;" d="M1035 237L1035 318L1135 318L1135 237L1035 237M1188 237L1188 318L1288 318L1288 237L1188 237M1341 237L1341 318L1441 318L1441 237L1341 237M1494 237L1494 318L1594 318L1594 237L1494 237M1647 237L1647 318L1747 318L1747 237L1647 237z"/>
<path style="fill:#616161; stroke:none;" d="M89 255L89 269L148 269L148 255L89 255M256 255L256 269L315 269L315 255L256 255z"/>
<path style="fill:#5d5d5d; stroke:none;" d="M89 269L89 285L148 285L148 269L89 269M256 269L256 285L315 285L315 269L256 269z"/>
<path style="fill:#565656; stroke:none;" d="M89 285L89 301L148 301L148 285L89 285M256 285L256 301L315 301L315 285L256 285z"/>
<path style="fill:#4d4d4d; stroke:none;" d="M89 301L89 315L148 315L148 301L89 301M256 301L256 315L315 315L315 301L256 301z"/>
<path style="fill:#494949; stroke:none;" d="M89 315L89 331L148 331L148 315L89 315M256 315L256 331L315 331L315 315L256 315z"/>
<path style="fill:#777777; stroke:none;" d="M149 319L149 372C155.31 366.789 159.675 358.639 164.421 352C171.852 341.606 182.042 330.786 187 319L149 319z"/>
<path style="fill:#181818; stroke:none;" d="M1083 319L1083 415C1085.6 408.806 1084 399.686 1084 393L1084 344C1084 336.52 1085.9 325.919 1083 319z"/>
<path style="fill:#4a4a4a; stroke:none;" d="M1085 319L1085 415C1087.9 408.081 1086 397.48 1086 390L1086 341C1086 334.314 1087.6 325.194 1085 319z"/>
<path style="fill:#626262; stroke:none;" d="M1086 319L1086 415C1088.6 408.806 1087 399.686 1087 393L1087 344C1087 336.52 1088.9 325.919 1086 319z"/>
<path style="fill:#7b7b7b; stroke:none;" d="M1087 319L1087 415C1089.6 408.806 1088 399.686 1088 393L1088 344C1088 336.52 1089.9 325.919 1087 319z"/>
<path style="fill:#949494; stroke:none;" d="M1088 319L1088 415C1090.9 408.081 1089 397.48 1089 390L1089 341C1089 334.314 1090.6 325.194 1088 319z"/>
<path style="fill:#adadad; stroke:none;" d="M1089 319L1089 415C1091.6 408.806 1090 399.686 1090 393L1090 344C1090 336.52 1091.9 325.919 1089 319z"/>
<path style="fill:#989898; stroke:none;" d="M1090 319L1090 415C1092.6 408.806 1091 399.686 1091 393L1091 344C1091 336.52 1092.9 325.919 1090 319z"/>
<path style="fill:#828282; stroke:none;" d="M1091 319L1091 415C1093.9 408.081 1092 397.48 1092 390L1092 341C1092 334.314 1093.6 325.194 1091 319z"/>
<path style="fill:#6d6d6d; stroke:none;" d="M1092 319L1092 415C1094.6 408.806 1093 399.686 1093 393L1093 344C1093 336.52 1094.9 325.919 1092 319z"/>
<path style="fill:#575757; stroke:none;" d="M1093 319L1093 415C1095.6 408.806 1094 399.686 1094 393L1094 344C1094 336.52 1095.9 325.919 1093 319z"/>
<path style="fill:#414141; stroke:none;" d="M1094 319L1094 415C1096.9 408.081 1095 397.48 1095 390L1095 341C1095 334.314 1096.6 325.194 1094 319z"/>
<path style="fill:#181818; stroke:none;" d="M1237 319L1237 527C1238.98 522.28 1238 516.08 1238 511L1238 480L1238 371L1238 336C1238 330.65 1239.09 323.969 1237 319z"/>
<path style="fill:#4a4a4a; stroke:none;" d="M1239 319L1239 527C1240.98 522.28 1240 516.08 1240 511L1240 480L1240 371L1240 336C1240 330.65 1241.09 323.969 1239 319z"/>
<path style="fill:#626262; stroke:none;" d="M1240 319L1240 527C1242.09 522.031 1241 515.35 1241 510L1241 475L1241 366L1241 335C1241 329.92 1241.98 323.72 1240 319z"/>
<path style="fill:#7b7b7b; stroke:none;" d="M1241 319L1241 527C1243.09 522.031 1242 515.35 1242 510L1242 475L1242 366L1242 335C1242 329.92 1242.98 323.72 1241 319z"/>
<path style="fill:#949494; stroke:none;" d="M1242 319L1242 527C1243.98 522.28 1243 516.08 1243 511L1243 480L1243 371L1243 336C1243 330.65 1244.09 323.969 1242 319z"/>
<path style="fill:#adadad; stroke:none;" d="M1243 319L1243 527C1245.09 522.031 1244 515.35 1244 510L1244 475L1244 366L1244 335C1244 329.92 1244.98 323.72 1243 319z"/>
<path style="fill:#989898; stroke:none;" d="M1244 319L1244 527C1246.09 522.031 1245 515.35 1245 510L1245 475L1245 366L1245 335C1245 329.92 1245.98 323.72 1244 319z"/>
<path style="fill:#828282; stroke:none;" d="M1245 319L1245 527C1246.98 522.28 1246 516.08 1246 511L1246 480L1246 371L1246 336C1246 330.65 1247.09 323.969 1245 319z"/>
<path style="fill:#6d6d6d; stroke:none;" d="M1246 319L1246 527C1247.98 522.28 1247 516.08 1247 511L1247 480L1247 371L1247 336C1247 330.65 1248.09 323.969 1246 319z"/>
<path style="fill:#575757; stroke:none;" d="M1247 319L1247 527C1248.98 522.28 1248 516.08 1248 511L1248 480L1248 371L1248 336C1248 330.65 1249.09 323.969 1247 319z"/>
<path style="fill:#414141; stroke:none;" d="M1248 319L1248 527C1249.98 522.28 1249 516.08 1249 511L1249 480L1249 371L1249 336C1249 330.65 1250.09 323.969 1248 319z"/>
<path style="fill:#2c2c2c; stroke:none;" d="M1249 319L1249 527C1250.98 522.28 1250 516.08 1250 511L1250 480L1250 371L1250 336C1250 330.65 1251.09 323.969 1249 319z"/>
<path style="fill:#181818; stroke:none;" d="M1389 319L1389 640C1391.9 633.081 1390 622.48 1390 615L1390 560L1390 390L1390 341C1390 334.314 1391.6 325.194 1389 319z"/>
<path style="fill:#4a4a4a; stroke:none;" d="M1391 319L1391 640C1393.9 633.081 1392 622.48 1392 615L1392 560L1392 390L1392 341C1392 334.314 1393.6 325.194 1391 319z"/>
<path style="fill:#626262; stroke:none;" d="M1392 319L1392 640C1394.9 633.081 1393 622.48 1393 615L1393 560L1393 390L1393 341C1393 334.314 1394.6 325.194 1392 319z"/>
<path style="fill:#7b7b7b; stroke:none;" d="M1393 319L1393 640C1395.9 633.081 1394 622.48 1394 615L1394 560L1394 390L1394 341C1394 334.314 1395.6 325.194 1393 319z"/>
<path style="fill:#949494; stroke:none;" d="M1394 319L1394 640C1396.9 633.081 1395 622.48 1395 615L1395 560L1395 390L1395 341C1395 334.314 1396.6 325.194 1394 319z"/>
<path style="fill:#adadad; stroke:none;" d="M1395 319L1395 640C1397.6 633.806 1396 624.686 1396 618L1396 569L1396 399L1396 344C1396 336.52 1397.9 325.919 1395 319z"/>
<path style="fill:#989898; stroke:none;" d="M1396 319L1396 640C1398.6 633.806 1397 624.686 1397 618L1397 569L1397 399L1397 344C1397 336.52 1398.9 325.919 1396 319z"/>
<path style="fill:#828282; stroke:none;" d="M1397 319L1397 640C1399.6 633.806 1398 624.686 1398 618L1398 569L1398 399L1398 344C1398 336.52 1399.9 325.919 1397 319z"/>
<path style="fill:#6d6d6d; stroke:none;" d="M1398 319L1398 640C1400.6 633.806 1399 624.686 1399 618L1399 569L1399 399L1399 344C1399 336.52 1400.9 325.919 1398 319z"/>
<path style="fill:#575757; stroke:none;" d="M1399 319L1399 640C1401.6 633.806 1400 624.686 1400 618L1400 569L1400 399L1400 344C1400 336.52 1401.9 325.919 1399 319z"/>
<path style="fill:#414141; stroke:none;" d="M1400 319L1400 640C1402.6 633.806 1401 624.686 1401 618L1401 569L1401 399L1401 344C1401 336.52 1402.9 325.919 1400 319z"/>
<path style="fill:#2c2c2c; stroke:none;" d="M1401 319L1401 640C1403.6 633.806 1402 624.686 1402 618L1402 569L1402 399L1402 344C1402 336.52 1403.9 325.919 1401 319z"/>
<path style="fill:#181818; stroke:none;" d="M1542 319L1542 752C1545.31 744.121 1543 731.534 1543 723L1543 657L1543 427L1543 352L1543 331C1543 327.017 1543.55 322.699 1542 319z"/>
<path style="fill:#4a4a4a; stroke:none;" d="M1544 319L1544 752C1547.31 744.121 1545 731.534 1545 723L1545 657L1545 427L1545 352L1545 331C1545 327.017 1545.55 322.699 1544 319z"/>
<path style="fill:#626262; stroke:none;" d="M1545 319L1545 752C1546.55 748.301 1546 743.983 1546 740L1546 719L1546 644L1546 414L1546 348C1546 339.466 1548.31 326.879 1545 319z"/>
<path style="fill:#7b7b7b; stroke:none;" d="M1546 319L1546 752C1549.31 744.121 1547 731.534 1547 723L1547 657L1547 427L1547 352L1547 331C1547 327.017 1547.55 322.699 1546 319z"/>
<path style="fill:#949494; stroke:none;" d="M1547 319L1547 752C1550.31 744.121 1548 731.534 1548 723L1548 657L1548 427L1548 352L1548 331C1548 327.017 1548.55 322.699 1547 319z"/>
<path style="fill:#adadad; stroke:none;" d="M1548 319L1548 752C1551.31 744.121 1549 731.534 1549 723L1549 657L1549 427L1549 352L1549 331C1549 327.017 1549.55 322.698 1548 319z"/>
<path style="fill:#989898; stroke:none;" d="M1549 319L1549 752C1552.31 744.121 1550 731.534 1550 723L1550 657L1550 427L1550 352L1550 331C1550 327.017 1550.55 322.699 1549 319z"/>
<path style="fill:#828282; stroke:none;" d="M1550 319L1550 752C1551.55 748.302 1551 743.983 1551 740L1551 719L1551 644L1551 414L1551 348C1551 339.466 1553.31 326.879 1550 319z"/>
<path style="fill:#6d6d6d; stroke:none;" d="M1551 319L1551 752C1554.31 744.121 1552 731.534 1552 723L1552 657L1552 427L1552 352L1552 331C1552 327.017 1552.55 322.699 1551 319z"/>
<path style="fill:#575757; stroke:none;" d="M1552 319L1552 752C1555.31 744.121 1553 731.534 1553 723L1553 657L1553 427L1553 352L1553 331C1553 327.017 1553.55 322.698 1552 319z"/>
<path style="fill:#414141; stroke:none;" d="M1553 319L1553 752C1556.31 744.121 1554 731.534 1554 723L1554 657L1554 427L1554 352L1554 331C1554 327.017 1554.55 322.699 1553 319z"/>
<path style="fill:#2c2c2c; stroke:none;" d="M1554 319L1554 752C1557.31 744.121 1555 731.534 1555 723L1555 657L1555 427L1555 352L1555 331C1555 327.017 1555.55 322.699 1554 319z"/>
<path style="fill:#181818; stroke:none;" d="M1695 319L1695 863C1696.77 858.785 1696 853.535 1696 849L1696 822L1696 728L1696 439L1696 355L1696 332C1696 327.74 1696.66 322.959 1695 319z"/>
<path style="fill:#313131; stroke:none;" d="M1696 319L1696 863C1697.66 859.041 1697 854.26 1697 850L1697 827L1697 743L1697 454L1697 360L1697 333C1697 328.464 1697.77 323.215 1696 319z"/>
<path style="fill:#4a4a4a; stroke:none;" d="M1697 319L1697 863C1698.77 858.785 1698 853.536 1698 849L1698 822L1698 728L1698 439L1698 355L1698 332C1698 327.74 1698.66 322.959 1697 319z"/>
<path style="fill:#626262; stroke:none;" d="M1698 319L1698 863C1699.66 859.041 1699 854.26 1699 850L1699 827L1699 743L1699 454L1699 360L1699 333C1699 328.464 1699.77 323.215 1698 319z"/>
<path style="fill:#7b7b7b; stroke:none;" d="M1699 319L1699 863C1700.77 858.785 1700 853.536 1700 849L1700 822L1700 728L1700 439L1700 355L1700 332C1700 327.74 1700.66 322.959 1699 319z"/>
<path style="fill:#949494; stroke:none;" d="M1700 319L1700 863C1701.77 858.785 1701 853.535 1701 849L1701 822L1701 728L1701 439L1701 355L1701 332C1701 327.74 1701.66 322.959 1700 319z"/>
<path style="fill:#adadad; stroke:none;" d="M1701 319L1701 863C1702.66 859.041 1702 854.26 1702 850L1702 827L1702 743L1702 454L1702 360L1702 333C1702 328.464 1702.77 323.215 1701 319z"/>
<path style="fill:#989898; stroke:none;" d="M1702 319L1702 863C1703.66 859.041 1703 854.26 1703 850L1703 827L1703 743L1703 454L1703 360L1703 333C1703 328.464 1703.77 323.215 1702 319z"/>
<path style="fill:#828282; stroke:none;" d="M1703 319L1703 863C1704.77 858.785 1704 853.536 1704 849L1704 822L1704 728L1704 439L1704 355L1704 332C1704 327.74 1704.66 322.958 1703 319z"/>
<path style="fill:#6d6d6d; stroke:none;" d="M1704 319L1704 863C1705.66 859.041 1705 854.26 1705 850L1705 827L1705 743L1705 454L1705 360L1705 333C1705 328.464 1705.77 323.215 1704 319z"/>
<path style="fill:#575757; stroke:none;" d="M1705 319L1705 863C1706.77 858.785 1706 853.536 1706 849L1706 822L1706 728L1706 439L1706 355L1706 332C1706 327.74 1706.66 322.959 1705 319z"/>
<path style="fill:#414141; stroke:none;" d="M1706 319L1706 863C1707.66 859.041 1707 854.26 1707 850L1707 827L1707 743L1707 454L1707 360L1707 333C1707 328.464 1707.77 323.215 1706 319z"/>
<path style="fill:#2c2c2c; stroke:none;" d="M1707 319L1707 863C1708.77 858.785 1708 853.535 1708 849L1708 822L1708 728L1708 439L1708 355L1708 332C1708 327.74 1708.66 322.959 1707 319z"/>
<path style="fill:#777777; stroke:none;" d="M316 321L316 374C322.31 368.789 326.675 360.639 331.421 354C338.852 343.606 349.042 332.786 354 321L316 321z"/>
<path style="fill:#333333; stroke:none;" d="M651 336C646.403 337.797 643.436 340.129 642 345L638 345L638 332L628 332L628 345L622 345L622 332L614 332L614 360L622 360L622 348L628 348L628 360L638 360L638 347C644.322 348.932 645.564 354.346 653 354L653 357L649 357L647 363L670 363L668 357L664 357L664 354L671 355C674.217 348.862 676.094 338.484 667 337C665.723 333.156 663.277 333.157 662 337L656 337C656.602 336.59 658.039 335.889 658.537 335.147C663.828 327.255 641.393 329.79 651 336z"/>
<path style="fill:#404040; stroke:none;" d="M89 331L89 345L148 345L148 331L89 331M256 331L256 345L315 345L315 331L256 331z"/>
<path style="fill:#6e8b8b; stroke:none;" d="M427 331L427 334C429.006 332.873 429.006 332.127 427 331z"/>
<path style="fill:#82a9a9; stroke:none;" d="M429 331L429 334C429.696 332.446 429.696 332.554 429 331z"/>
<path style="fill:#96c7c7; stroke:none;" d="M430 331L430 334C430.696 332.446 430.696 332.554 430 331z"/>
<path style="fill:#83aaaa; stroke:none;" d="M431 331L431 334L433 334L433 331L431 331z"/>
<path style="fill:#333333; stroke:none;" d="M432 332L433 333L432 332z"/>
<path style="fill:#5b6f6f; stroke:none;" d="M433 332L434 333L433 332z"/>
<path style="fill:#777777; stroke:none;" d="M473 332L473 902L527 902L527 866C527 861.253 528.236 854.367 525.972 850.039C522.365 843.143 511.993 837.595 506 832.8C502.12 829.696 497.401 826.75 494.207 822.915C493.391 821.936 491.413 819.244 493.466 818.342C496.346 817.077 501.046 822.238 503 823.8C510.657 829.922 518.254 837.535 527 842L527 768L527 748C527 744.801 527.508 740.976 525.972 738.039C524.113 734.485 520.051 732.041 517 729.6C511 724.8 504.959 720.047 499 715.196C497.433 713.92 490.794 709.428 492.921 706.751C494.942 704.208 500.55 709.844 502 711C509.981 717.365 517.893 725.351 527 730L527 656L527 636C527 632.801 527.508 628.976 525.972 626.039C524.113 622.486 520.051 620.041 517 617.6C511 612.8 504.959 608.047 499 603.196C497.433 601.92 490.794 597.428 492.921 594.751C494.942 592.208 500.55 597.844 502 599C509.981 605.365 517.893 613.351 527 618L527 544L527 524C527 520.801 527.508 516.976 525.972 514.039C524.113 510.486 520.051 508.041 517 505.6C511 500.8 504.959 496.047 499 491.196C497.433 489.92 490.794 485.428 492.921 482.751C494.942 480.208 500.55 485.844 502 487C509.981 493.365 517.893 501.351 527 506L527 432L527 412C527 408.801 527.508 404.976 525.972 402.039C524.113 398.485 520.051 396.041 517 393.6C511 388.8 504.959 384.047 499 379.196C497.433 377.92 490.794 373.428 492.921 370.751C494.942 368.208 500.55 373.844 502 375C509.981 381.365 517.893 389.351 527 394L527 332L473 332z"/>
<path style="fill:#333333; stroke:none;" d="M530 332L530 360L538 360L538 332L530 332z"/>
<path style="fill:#777777; stroke:none;" d="M557 332L557 397C567.571 391.999 577.414 383.978 587 377.28C589.374 375.621 595.301 369.709 598.534 371.305C602.547 373.285 593.255 379.24 592 380.14C581.514 387.662 570.698 394.783 560 402C564.969 404.085 571.65 403 577 403L611 403L611 332L557 332z"/>
<path style="fill:#82a9a9; stroke:none;" d="M652 332L652 335C654.006 333.873 654.006 333.127 652 332z"/>
<path style="fill:#96c7c7; stroke:none;" d="M654 332L654 335L656 335L656 332L654 332z"/>
<path style="fill:#5b6f6f; stroke:none;" d="M657 332L658 333L657 332z"/>
<path style="fill:#96c7c7; stroke:none;" d="M418 333L419 334L418 333z"/>
<path style="fill:#121200; stroke:none;" d="M450 333C452.613 334.098 455.165 333.993 458 334C455.387 332.902 452.835 333.007 450 333z"/>
<path style="fill:#181818; stroke:none;" d="M464 333L464 336L470 336L470 333L464 333M531 333L531 336L537 336L537 333L531 333M548 333L548 336L554 336L554 333L548 333M615 333L615 336L621 336L621 333L615 333z"/>
<path style="fill:#121200; stroke:none;" d="M629 333C631.613 334.098 634.164 333.993 637 334C634.387 332.902 631.836 333.007 629 333z"/>
<path style="fill:#5a6e6e; stroke:none;" d="M651 333L652 334L651 333z"/>
<path style="fill:#333333; stroke:none;" d="M652 333L653 334L652 333M655 333L656 334L655 333z"/>
<path style="fill:#6f8c8c; stroke:none;" d="M656 333L657 334L656 333z"/>
<path style="fill:#242400; stroke:none;" d="M450 334C452.613 335.098 455.165 334.993 458 335C455.387 333.902 452.835 334.007 450 334M629 334C631.613 335.098 634.164 334.993 637 335C634.387 333.902 631.836 334.007 629 334z"/>
<path style="fill:#5b6f6f; stroke:none;" d="M657 334L658 335L657 334z"/>
<path style="fill:#647d7d; stroke:none;" d="M663 334L663 337C663.696 335.446 663.696 335.554 663 334z"/>
<path style="fill:#96c7c7; stroke:none;" d="M664 334L665 335L664 334z"/>
<path style="fill:#759696; stroke:none;" d="M665 334L665 337C665.696 335.446 665.696 335.554 665 334z"/>
<path style="fill:#647d7d; stroke:none;" d="M417 335L418 336L417 335z"/>
<path style="fill:#777777; stroke:none;" d="M419 335L420 336L419 335z"/>
<path style="fill:#363600; stroke:none;" d="M450 335C452.613 336.098 455.164 335.993 458 336C455.387 334.902 452.836 335.007 450 335M629 335C631.613 336.098 634.164 335.993 637 336C634.387 334.902 631.836 335.007 629 335z"/>
<path style="fill:#484800; stroke:none;" d="M450 336C452.613 337.098 455.165 336.993 458 337C455.387 335.902 452.835 336.007 450 336M629 336C631.613 337.098 634.164 336.993 637 337C634.387 335.902 631.836 336.007 629 336z"/>
<path style="fill:#647d7d; stroke:none;" d="M652 336L653 337L652 336z"/>
<path style="fill:#96c7c7; stroke:none;" d="M653 336L654 337L653 336z"/>
<path style="fill:#759696; stroke:none;" d="M654 336L655 337L654 336z"/>
<path style="fill:#5b5b00; stroke:none;" d="M450 337C452.613 338.098 455.165 337.993 458 338C455.387 336.902 452.835 337.007 450 337M629 337C631.613 338.098 634.164 337.993 637 338C634.387 336.902 631.836 337.007 629 337z"/>
<path style="fill:#6d6d00; stroke:none;" d="M450 338C452.613 339.098 455.165 338.993 458 339C455.387 337.902 452.835 338.007 450 338z"/>
<path style="fill:#545454; stroke:none;" d="M464 338L464 341L470 341L470 338L464 338M531 338L531 341L537 341L537 338L531 338M548 338L548 341L554 341L554 338L548 338M615 338L615 341L621 341L621 338L615 338z"/>
<path style="fill:#6d6d00; stroke:none;" d="M629 338C631.613 339.098 634.164 338.993 637 339C634.387 337.902 631.836 338.007 629 338z"/>
<path style="fill:#586a6a; stroke:none;" d="M411.333 339.667C411.278 339.722 411.222 340.778 411.667 340.333C411.722 340.278 411.778 339.222 411.333 339.667z"/>
<path style="fill:#338888; stroke:none;" d="M438 339C438.211 341.739 438.302 342.422 441 343C440.045 341.233 439.434 340.393 438 339z"/>
<path style="fill:#7f7f00; stroke:none;" d="M450 339C452.613 340.098 455.165 339.993 458 340C455.387 338.902 452.836 339.007 450 339M629 339C631.613 340.098 634.164 339.993 637 340C634.387 338.902 631.836 339.007 629 339z"/>
<path style="fill:#919100; stroke:none;" d="M450 340C452.613 341.098 455.165 340.993 458 341C455.387 339.902 452.836 340.007 450 340M629 340C631.613 341.098 634.164 340.993 637 341C634.387 339.902 631.836 340.007 629 340z"/>
<path style="fill:#596c6c; stroke:none;" d="M671.333 340.667C671.278 340.722 671.222 341.778 671.667 341.333C671.722 341.278 671.778 340.222 671.333 340.667z"/>
<path style="fill:#7da2a2; stroke:none;" d="M411 341L410 345C411.656 343.596 411.751 343.046 411 341z"/>
<path style="fill:#4c5858; stroke:none;" d="M415 341C420.959 343.5 429.564 342 436 342C430.041 339.5 421.436 341 415 341z"/>
<path style="fill:#a3a300; stroke:none;" d="M450 341C452.613 342.098 455.165 341.993 458 342C455.387 340.902 452.835 341.007 450 341z"/>
<path style="fill:#787878; stroke:none;" d="M464 341L464 344L470 344L470 341L464 341M531 341L531 344L537 344L537 341L531 341M548 341L548 344L554 344L554 341L548 341M615 341L615 344L621 344L621 341L615 341z"/>
<path style="fill:#a3a300; stroke:none;" d="M629 341C631.613 342.098 634.164 341.993 637 342C634.387 340.902 631.836 341.007 629 341z"/>
<path style="fill:#339292; stroke:none;" d="M647 344L647 341C644.392 342.12 643.932 343.341 647 344z"/>
<path style="fill:#4c5858; stroke:none;" d="M648 341C653.715 343.398 661.831 342 668 342C662.285 339.602 654.169 341 648 341z"/>
<path style="fill:#b6b600; stroke:none;" d="M450 342C452.613 343.098 455.165 342.993 458 343C455.387 341.902 452.835 342.007 450 342M629 342C631.613 343.098 634.164 342.993 637 343C634.387 341.902 631.836 342.007 629 342z"/>
<path style="fill:#7fa5a5; stroke:none;" d="M671 342C671.307 344.123 671.382 344.686 673 346C672.489 344.048 672.267 343.543 671 342z"/>
<path style="fill:#4c5858; stroke:none;" d="M415 343C420.959 345.501 429.564 344 436 344C430.041 341.5 421.436 343 415 343z"/>
<path style="fill:#33bbbb; stroke:none;" d="M438 343L438 348L441 348L441 343L438 343z"/>
<path style="fill:#c8c800; stroke:none;" d="M450 343L450 345C452.85 344.979 455.271 344.81 458 344C455.387 342.902 452.836 343.007 450 343M629 343C631.613 344.098 634.164 343.993 637 344C634.387 342.902 631.836 343.007 629 343z"/>
<path style="fill:#4c5858; stroke:none;" d="M648 343C653.715 345.398 661.831 344 668 344C662.285 341.602 654.169 343 648 343z"/>
<path style="fill:#9c9c9c; stroke:none;" d="M464 344L464 349L470 349L470 344L464 344M531 344L531 349L537 349L537 344L531 344M548 344L548 349L554 349L554 344L548 344M615 344L615 349L621 349L621 344L615 344z"/>
<path style="fill:#dada00; stroke:none;" d="M629 344C631.613 345.098 634.164 344.993 637 345C634.387 343.902 631.836 344.007 629 344z"/>
<path style="fill:#33cccc; stroke:none;" d="M644 344L644 347L646 347L646 344L644 344z"/>
<path style="fill:#3c3c3c; stroke:none;" d="M89 345L89 361L148 361L148 345L89 345M256 345L256 361L315 361L315 345L256 345z"/>
<path style="fill:#8bb7b7; stroke:none;" d="M410 345L410 348L412 348L412 345L410 345z"/>
<path style="fill:#98caca; stroke:none;" d="M444 345C445.769 345.779 447.036 345.912 449 346C447.231 345.221 445.964 345.088 444 345z"/>
<path style="fill:#ffff00; stroke:none;" d="M450 345L450 347L457 347C454.692 345.241 452.908 345.083 450 345z"/>
<path style="fill:#eded00; stroke:none;" d="M629 345L629 348L637 348L637 345L629 345z"/>
<path style="fill:#99cccc; stroke:none;" d="M671 346L671 348C672.635 347.455 672.455 347.635 673 346L671 346z"/>
<path style="fill:#4c5858; stroke:none;" d="M415 347C420.959 349.501 429.564 348 436 348C430.041 345.5 421.436 347 415 347z"/>
<path style="fill:#eded00; stroke:none;" d="M450 347C452.613 348.098 455.165 347.993 458 348C455.387 346.902 452.836 347.007 450 347z"/>
<path style="fill:#338888; stroke:none;" d="M644 347C644.511 348.952 644.733 349.457 646 351L647 347L644 347z"/>
<path style="fill:#4c5858; stroke:none;" d="M648 347C653.715 349.398 661.831 348 668 348C662.285 345.602 654.169 347 648 347z"/>
<path style="fill:#739393; stroke:none;" d="M672 347C671.438 348.8 671.176 350.122 671 352C672.133 350.101 672.473 349.143 672 347z"/>
<path style="fill:#6a8686; stroke:none;" d="M411.333 348.667C411.278 348.722 411.222 349.778 411.667 349.333C411.722 349.278 411.777 348.223 411.333 348.667z"/>
<path style="fill:#338888; stroke:none;" d="M438 348L438 352C439.608 350.55 440.064 349.949 441 348L438 348z"/>
<path style="fill:#dbdb00; stroke:none;" d="M450 348C452.613 349.098 455.164 348.993 458 349C455.387 347.902 452.835 348.007 450 348M629 348C631.613 349.098 634.164 348.993 637 349C634.387 347.902 631.836 348.007 629 348z"/>
<path style="fill:#c9c900; stroke:none;" d="M450 349C452.613 350.098 455.165 349.993 458 350C455.387 348.902 452.835 349.007 450 349z"/>
<path style="fill:#787878; stroke:none;" d="M464 349L464 352L470 352L470 349L464 349M531 349L531 352L537 352L537 349L531 349M548 349L548 352L554 352L554 349L548 349M615 349L615 352L621 352L621 349L615 349z"/>
<path style="fill:#c9c900; stroke:none;" d="M629 349C631.613 350.098 634.164 349.993 637 350C634.387 348.902 631.836 349.007 629 349z"/>
<path style="fill:#4c5858; stroke:none;" d="M648 349C653.715 351.398 661.831 350 668 350C662.285 347.602 654.169 349 648 349z"/>
<path style="fill:#546565; stroke:none;" d="M411.333 350.667C411.278 350.722 411.222 351.778 411.667 351.333C411.722 351.278 411.778 350.222 411.333 350.667z"/>
<path style="fill:#b7b700; stroke:none;" d="M450 350C452.613 351.098 455.165 350.993 458 351C455.387 349.902 452.836 350.007 450 350M629 350C631.613 351.098 634.164 350.993 637 351C634.387 349.902 631.836 350.007 629 350z"/>
<path style="fill:#4e5c5c; stroke:none;" d="M421 351C422.248 351.685 422.548 351.749 424 352C422.752 351.315 422.452 351.251 421 351z"/>
<path style="fill:#6a8585; stroke:none;" d="M423 354C424.457 352.897 424.897 352.457 426 351C423.876 351.899 423.899 351.876 423 354z"/>
<path style="fill:#7ca0a0; stroke:none;" d="M424 354C426.33 353.685 427.918 353.098 430 352C427.186 351.088 426.017 351.926 424 354z"/>
<path style="fill:#a4a400; stroke:none;" d="M450 351C452.613 352.098 455.165 351.993 458 352C455.387 350.902 452.835 351.007 450 351M629 351C631.613 352.098 634.164 351.993 637 352C634.387 350.902 631.836 351.007 629 351z"/>
<path style="fill:#929200; stroke:none;" d="M450 352C452.613 353.098 455.165 352.993 458 353C455.387 351.902 452.836 352.007 450 352z"/>
<path style="fill:#545454; stroke:none;" d="M464 352L464 355L470 355L470 352L464 352M531 352L531 355L537 355L537 352L531 352M548 352L548 355L554 355L554 352L548 352M615 352L615 355L621 355L621 352L615 352z"/>
<path style="fill:#929200; stroke:none;" d="M629 352C631.613 353.098 634.164 352.993 637 353C634.387 351.902 631.836 352.007 629 352z"/>
<path style="fill:#607777; stroke:none;" d="M656 352L654 356C655.981 354.84 656.74 353.951 658 352L656 352z"/>
<path style="fill:#739393; stroke:none;" d="M657 353C659.046 353.751 659.596 353.656 661 352L657 353z"/>
<path style="fill:#808000; stroke:none;" d="M450 353C452.613 354.098 455.165 353.993 458 354C455.387 352.902 452.836 353.007 450 353M629 353C631.613 354.098 634.164 353.993 637 354C634.387 352.902 631.836 353.007 629 353z"/>
<path style="fill:#6a8585; stroke:none;" d="M421.333 354.667C421.278 354.722 421.222 355.778 421.667 355.333C421.722 355.278 421.778 354.222 421.333 354.667z"/>
<path style="fill:#86afaf; stroke:none;" d="M428 354L428 356C429.635 355.455 429.455 355.635 430 354L428 354z"/>
<path style="fill:#6e6e00; stroke:none;" d="M450 354C452.613 355.098 455.165 354.993 458 355C455.387 353.902 452.835 354.007 450 354M629 354C631.613 355.098 634.164 354.993 637 355C634.387 353.902 631.836 354.007 629 354z"/>
<path style="fill:#86afaf; stroke:none;" d="M662.333 354.667C662.278 354.722 662.222 355.778 662.667 355.333C662.722 355.278 662.778 354.222 662.333 354.667z"/>
<path style="fill:#772222; stroke:none;" d="M423 355L423 359C423.71 357.24 423.71 356.759 423 355z"/>
<path style="fill:#bb1111; stroke:none;" d="M424 355L424 359C424.71 357.24 424.71 356.759 424 355z"/>
<path style="fill:#ff0000; stroke:none;" d="M425 355L425 359C425.71 357.24 425.71 356.76 425 355z"/>
<path style="fill:#bb1111; stroke:none;" d="M426 355L426 359C426.71 357.24 426.71 356.759 426 355z"/>
<path style="fill:#749494; stroke:none;" d="M429 355L428 359C429.303 357.332 429.553 357.008 429 355z"/>
<path style="fill:#5c5c00; stroke:none;" d="M450 355C452.613 356.098 455.165 355.993 458 356C455.387 354.902 452.835 355.007 450 355M629 355C631.613 356.098 634.164 355.993 637 356C634.387 354.902 631.836 355.007 629 355z"/>
<path style="fill:#772222; stroke:none;" d="M657 355L657 359C657.71 357.24 657.71 356.76 657 355z"/>
<path style="fill:#bb1111; stroke:none;" d="M658 355L658 359C658.71 357.241 658.71 356.759 658 355z"/>
<path style="fill:#ff0000; stroke:none;" d="M659 355L659 359C659.71 357.241 659.71 356.759 659 355z"/>
<path style="fill:#bb1111; stroke:none;" d="M660 355L660 359C660.71 357.241 660.71 356.759 660 355z"/>
<path style="fill:#7ca0a0; stroke:none;" d="M421 356L421 360C421.71 358.241 421.71 357.759 421 356z"/>
<path style="fill:#494900; stroke:none;" d="M450 356C452.613 357.098 455.165 356.993 458 357C455.387 355.902 452.836 356.007 450 356M629 356C631.613 357.098 634.164 356.993 637 357C634.387 355.902 631.836 356.007 629 356z"/>
<path style="fill:#7ca0a0; stroke:none;" d="M654 356L654 358L656 358L656 356L654 356z"/>
<path style="fill:#6b8686; stroke:none;" d="M662 356L662 359C662.696 357.446 662.696 357.554 662 356z"/>
<path style="fill:#373700; stroke:none;" d="M450 357C452.613 358.098 455.165 357.993 458 358C455.387 356.902 452.835 357.007 450 357z"/>
<path style="fill:#181818; stroke:none;" d="M464 357L464 359L470 359L470 357L464 357M531 357L531 359L537 359L537 357L531 357M548 357L548 359L554 359L554 357L548 357M615 357L615 359L621 359L621 357L615 357z"/>
<path style="fill:#373700; stroke:none;" d="M629 357C631.613 358.098 634.164 357.993 637 358C634.387 356.902 631.836 357.007 629 357z"/>
<path style="fill:#98caca; stroke:none;" d="M417 358L418 359L417 358z"/>
<path style="fill:#586a6a; stroke:none;" d="M429 358L428 360L430 360C430 358.147 430.3 358.65 429 358z"/>
<path style="fill:#98caca; stroke:none;" d="M433 358L434 359L433 358z"/>
<path style="fill:#252500; stroke:none;" d="M450 358C452.613 359.098 455.165 358.993 458 359C455.387 357.902 452.836 358.007 450 358M629 358C631.613 359.098 634.164 358.993 637 359C634.387 357.902 631.836 358.007 629 358z"/>
<path style="fill:#657e7e; stroke:none;" d="M650 358L651 359L650 358z"/>
<path style="fill:#98caca; stroke:none;" d="M651 358L652 359L651 358z"/>
<path style="fill:#8ebcbc; stroke:none;" d="M654.667 358.333C654.222 358.778 655.278 358.722 655.333 358.667C655.778 358.222 654.722 358.278 654.667 358.333z"/>
<path style="fill:#657e7e; stroke:none;" d="M665 358L666 359L665 358z"/>
<path style="fill:#98caca; stroke:none;" d="M666 358L667 359L666 358z"/>
<path style="fill:#5d7171; stroke:none;" d="M416 361C417.769 361.779 419.036 361.912 421 362C419.231 361.221 417.964 361.088 416 361z"/>
<path style="fill:#87b0b0; stroke:none;" d="M421 361C423.89 362.213 426.874 361.998 430 362C427.11 360.787 424.126 361.002 421 361z"/>
<path style="fill:#6e8c8c; stroke:none;" d="M430 361C431.248 361.685 431.548 361.749 433 362C431.752 361.315 431.452 361.251 430 361z"/>
<path style="fill:#444d4d; stroke:none;" d="M433 361C434.506 361.683 435.315 361.826 437 362C435.494 361.317 434.685 361.174 433 361z"/>
<path style="fill:#4e5c5c; stroke:none;" d="M649 361C650.248 361.685 650.548 361.749 652 362C650.752 361.315 650.452 361.251 649 361z"/>
<path style="fill:#6a8585; stroke:none;" d="M652.667 361.333C652.222 361.778 653.278 361.722 653.333 361.667C653.778 361.222 652.722 361.278 652.667 361.333z"/>
<path style="fill:#7ca0a0; stroke:none;" d="M654 361C655.248 361.685 655.548 361.749 657 362C655.752 361.315 655.452 361.251 654 361z"/>
<path style="fill:#98caca; stroke:none;" d="M657 361C658.248 361.685 658.548 361.749 660 362C658.752 361.315 658.451 361.251 657 361z"/>
<path style="fill:#6e8c8c; stroke:none;" d="M660 361C661.769 361.779 663.036 361.912 665 362C663.231 361.221 661.964 361.088 660 361z"/>
<path style="fill:#444d4d; stroke:none;" d="M665 361C666.506 361.683 667.315 361.826 669 362C667.494 361.317 666.685 361.174 665 361z"/>
<path style="fill:#2f2f2f; stroke:none;" d="M89 375L89 391L148 391L148 375L89 375M256 375L256 391L315 391L315 375L256 375z"/>
<path style="fill:#040404; stroke:none;" d="M386 390C384.101 391.603 382.542 393.068 381 395L387 398C389.959 393.436 397.096 395 402 395L445 395L445 393L403 393C397.149 393 390.523 394.318 386 390z"/>
<path style="fill:#282828; stroke:none;" d="M89 391L89 407L148 407L148 391L89 391M256 391L256 407L315 407L315 391L256 391z"/>
<path style="fill:#0e0e0e; stroke:none;" d="M952 395L952 401L955 401L955 395L952 395z"/>
<path style="fill:#232323; stroke:none;" d="M955 395L955 401L958 401L958 395L955 395z"/>
<path style="fill:#464646; stroke:none;" d="M960 395L960 401L963 401L963 395L960 395z"/>
<path style="fill:#5b5b5b; stroke:none;" d="M963 395L963 401L966 401L966 395L963 395z"/>
<path style="fill:#707070; stroke:none;" d="M966 395L966 401L969 401L969 395L966 395z"/>
<path style="fill:#868686; stroke:none;" d="M969 395L969 401L972 401L972 395L969 395z"/>
<path style="fill:#717171; stroke:none;" d="M972 395L972 401L975 401L975 395L972 395z"/>
<path style="fill:#5c5c5c; stroke:none;" d="M975 395L975 401L978 401L978 395L975 395z"/>
<path style="fill:#474747; stroke:none;" d="M978 395L978 401L981 401L981 395L978 395z"/>
<path style="fill:#242424; stroke:none;" d="M983 395L983 401L986 401L986 395L983 395z"/>
<path style="fill:#0f0f0f; stroke:none;" d="M986 395L986 401L988 401L988 395L986 395z"/>
<path style="fill:#777777; stroke:none;" d="M529 404L529 484C529 490.738 526.956 501.462 529.603 507.711C531.716 512.696 539.185 517.138 544 519L544 515C557.92 514.558 555 501.277 555 491L555 416C551.826 416 548.309 416.379 545.286 415.232C539.245 412.939 534.588 407.215 529 404z"/>
<path style="fill:#adadad; stroke:none;" d="M545.667 404.333C545.222 404.778 546.278 404.722 546.333 404.667C546.778 404.222 545.722 404.278 545.667 404.333z"/>
<path style="fill:#a9a9a9; stroke:none;" d="M545 415L574 415L574 404C562.97 404 550.689 403.358 545 415z"/>
<path style="fill:#a0a0a0; stroke:none;" d="M574 404L574 415L601 415L601 404L574 404z"/>
<path style="fill:#979797; stroke:none;" d="M601 404L601 415L649 415L649 404L601 404z"/>
<path style="fill:#888888; stroke:none;" d="M649 404L649 415L676 415L676 404L649 404z"/>
<path style="fill:#7f7f7f; stroke:none;" d="M676 404L676 415L703 415L703 404L676 404z"/>
<path style="fill:#767676; stroke:none;" d="M703 404L703 415L730 415L730 404L703 404z"/>
<path style="fill:#6e6e6e; stroke:none;" d="M730 404L730 415L757 415L757 404L730 404z"/>
<path style="fill:#656565; stroke:none;" d="M757 404L757 415L784 415L784 404L757 404z"/>
<path style="fill:#575757; stroke:none;" d="M784 404L784 415L829 415L829 404L784 404z"/>
<path style="fill:#4e4e4e; stroke:none;" d="M829 404L829 415L856 415L856 404L829 404z"/>
<path style="fill:#454545; stroke:none;" d="M856 404L856 415L883 415L883 404L856 404z"/>
<path style="fill:#3c3c3c; stroke:none;" d="M883 404L883 415L910 415L910 404L883 404z"/>
<path style="fill:#2a2a2a; stroke:none;" d="M940 404L940 415L967 415L967 404L940 404z"/>
<path style="fill:#1d1d1d; stroke:none;" d="M967 404L967 415L1009 415L1009 404L967 404z"/>
<path style="fill:#141414; stroke:none;" d="M1009 404L1009 415L1036 415L1036 404L1009 404z"/>
<path style="fill:#0b0b0b; stroke:none;" d="M1036 404L1036 415L1063 415L1063 404L1036 404z"/>
<path style="fill:#020202; stroke:none;" d="M1063 404L1063 415L1082 415L1082 404L1063 404z"/>
<path style="fill:#1f1f1f; stroke:none;" d="M89 407L89 421L148 421L148 407L89 407M256 407L256 421L315 421L315 407L256 407z"/>
<path style="fill:#777777; stroke:none;" d="M557 416L557 509C567.571 503.999 577.414 495.978 587 489.28C589.374 487.621 595.301 481.709 598.534 483.305C602.547 485.285 593.255 491.24 592 492.14C581.514 499.663 570.698 506.783 560 514C564.969 516.085 571.65 515 577 515L611 515L611 416L557 416z"/>
<path style="fill:#0e0e0e; stroke:none;" d="M952 418L952 424L955 424L955 418L952 418z"/>
<path style="fill:#232323; stroke:none;" d="M955 418L955 424L958 424L958 418L955 418z"/>
<path style="fill:#464646; stroke:none;" d="M960 418L960 424L963 424L963 418L960 418z"/>
<path style="fill:#5b5b5b; stroke:none;" d="M963 418L963 424L966 424L966 418L963 418z"/>
<path style="fill:#707070; stroke:none;" d="M966 418L966 424L969 424L969 418L966 418z"/>
<path style="fill:#868686; stroke:none;" d="M969 418L969 424L972 424L972 418L969 418z"/>
<path style="fill:#717171; stroke:none;" d="M972 418L972 424L975 424L975 418L972 418z"/>
<path style="fill:#5c5c5c; stroke:none;" d="M975 418L975 424L978 424L978 418L975 418z"/>
<path style="fill:#474747; stroke:none;" d="M978 418L978 424L981 424L981 418L978 418z"/>
<path style="fill:#242424; stroke:none;" d="M983 418L983 424L986 424L986 418L983 418z"/>
<path style="fill:#0f0f0f; stroke:none;" d="M986 418L986 424L988 424L988 418L986 418z"/>
<path style="fill:#1b1b1b; stroke:none;" d="M89 421L89 437L148 437L148 421L89 421M256 421L256 437L315 437L315 421L256 421z"/>
<path style="fill:#141414; stroke:none;" d="M89 437L89 453L148 453L148 437L89 437M256 437L256 453L315 453L315 437L256 437z"/>
<path style="fill:#333333; stroke:none;" d="M43 455C40.8941 455.644 39.2049 455.906 37 456C35.921 452.193 33.0791 452.193 32 456C24.8086 457.22 22.7657 468.368 27.8789 473.397C29.9533 475.437 33.3416 474.991 36 475L36 480C35.0143 478.522 35 478.797 35 477L32 477L30 483L54 483L51 477L48 477L48 480C47.4382 478.199 47.1759 476.878 47 475C49.2936 474.973 51.7511 475.138 53.8279 473.972C58.3774 471.418 59.2598 467.442 65 467L65 480L75 480L75 467L79 467L79 480L87 480L87 452L79 452L79 464L75 464L75 452L65 452L65 464C57.8911 463.513 55.9608 456.536 49 456L53 455L53 450C49.7237 449.381 45.3509 448.043 42.1111 449.5C38.6107 451.074 40.1302 454.385 43 455M354 456C349.403 457.797 346.436 460.129 345 465L341 465L341 452L331 452L331 465L325 465L325 452L317 452L317 480L325 480L325 468L331 468L331 480L341 480L341 467C347.322 468.932 348.564 474.347 356 474L356 477L352 477L350 483L373 483L371 477L367 477L367 474L374 475C377.217 468.862 379.094 458.484 370 457C368.723 453.156 366.277 453.156 365 457L359 457C359.602 456.59 361.04 455.889 361.537 455.147C366.828 447.255 344.392 449.79 354 456z"/>
<path style="fill:#6e8b8b; stroke:none;" d="M43 451L43 454C45.0059 452.873 45.0059 452.127 43 451z"/>
<path style="fill:#82a9a9; stroke:none;" d="M45 451L45 454C45.6961 452.446 45.6961 452.554 45 451z"/>
<path style="fill:#96c7c7; stroke:none;" d="M46 451L46 454C46.6961 452.446 46.6961 452.554 46 451z"/>
<path style="fill:#83aaaa; stroke:none;" d="M47 451L47 454L49 454L49 451L47 451z"/>
<path style="fill:#333333; stroke:none;" d="M48 452L49 453L48 452z"/>
<path style="fill:#5b6f6f; stroke:none;" d="M49 452L50 453L49 452z"/>
<path style="fill:#333333; stroke:none;" d="M150 452L150 480L158 480L158 452L150 452z"/>
<path style="fill:#82a9a9; stroke:none;" d="M355 452L355 455C357.006 453.873 357.006 453.127 355 452z"/>
<path style="fill:#96c7c7; stroke:none;" d="M357 452L357 455L359 455L359 452L357 452z"/>
<path style="fill:#5b6f6f; stroke:none;" d="M360 452L361 453L360 452z"/>
<path style="fill:#96c7c7; stroke:none;" d="M34 453L35 454L34 453z"/>
<path style="fill:#121200; stroke:none;" d="M66 453C68.6128 454.098 71.1645 453.993 74 454C71.3873 452.902 68.8355 453.007 66 453z"/>
<path style="fill:#181818; stroke:none;" d="M80 453L80 456L86 456L86 453L80 453z"/>
<path style="fill:#0b0b0b; stroke:none;" d="M89 453L89 467L148 467L148 453L89 453z"/>
<path style="fill:#181818; stroke:none;" d="M151 453L151 456L157 456L157 453L151 453z"/>
<path style="fill:#333333; stroke:none;" d="M246 453L246 481L254 481L254 453L246 453z"/>
<path style="fill:#0b0b0b; stroke:none;" d="M256 453L256 467L315 467L315 453L256 453z"/>
<path style="fill:#181818; stroke:none;" d="M318 453L318 456L324 456L324 453L318 453z"/>
<path style="fill:#121200; stroke:none;" d="M332 453C334.613 454.098 337.165 453.993 340 454C337.387 452.902 334.836 453.007 332 453z"/>
<path style="fill:#5a6e6e; stroke:none;" d="M354 453L355 454L354 453z"/>
<path style="fill:#333333; stroke:none;" d="M355 453L356 454L355 453M358 453L359 454L358 453z"/>
<path style="fill:#6f8c8c; stroke:none;" d="M359 453L360 454L359 453z"/>
<path style="fill:#242400; stroke:none;" d="M66 454C68.6128 455.098 71.1645 454.993 74 455C71.3873 453.902 68.8355 454.007 66 454z"/>
<path style="fill:#181818; stroke:none;" d="M247 454L247 457L253 457L253 454L247 454z"/>
<path style="fill:#242400; stroke:none;" d="M332 454C334.613 455.098 337.165 454.993 340 455C337.387 453.902 334.836 454.007 332 454z"/>
<path style="fill:#5b6f6f; stroke:none;" d="M360 454L361 455L360 454z"/>
<path style="fill:#647d7d; stroke:none;" d="M366 454L366 457C366.696 455.446 366.696 455.554 366 454z"/>
<path style="fill:#96c7c7; stroke:none;" d="M367 454L368 455L367 454z"/>
<path style="fill:#759696; stroke:none;" d="M368 454L368 457C368.696 455.446 368.696 455.554 368 454z"/>
<path style="fill:#647d7d; stroke:none;" d="M33 455L34 456L33 455z"/>
<path style="fill:#777777; stroke:none;" d="M35 455L36 456L35 455z"/>
<path style="fill:#363600; stroke:none;" d="M66 455C68.6128 456.098 71.1645 455.993 74 456C71.3873 454.902 68.8355 455.007 66 455M332 455C334.613 456.098 337.165 455.993 340 456C337.387 454.902 334.836 455.007 332 455z"/>
<path style="fill:#484800; stroke:none;" d="M66 456C68.6127 457.098 71.1645 456.993 74 457C71.3873 455.902 68.8355 456.007 66 456M332 456C334.613 457.098 337.165 456.993 340 457C337.387 455.902 334.836 456.007 332 456z"/>
<path style="fill:#647d7d; stroke:none;" d="M355 456L356 457L355 456z"/>
<path style="fill:#96c7c7; stroke:none;" d="M356 456L357 457L356 456z"/>
<path style="fill:#759696; stroke:none;" d="M357 456L358 457L357 456z"/>
<path style="fill:#5b5b00; stroke:none;" d="M66 457C68.6127 458.098 71.1645 457.993 74 458C71.3873 456.902 68.8355 457.007 66 457M332 457C334.613 458.098 337.165 457.993 340 458C337.387 456.902 334.836 457.007 332 457z"/>
<path style="fill:#6d6d00; stroke:none;" d="M66 458C68.6127 459.098 71.1645 458.993 74 459C71.3873 457.902 68.8355 458.007 66 458z"/>
<path style="fill:#545454; stroke:none;" d="M80 458L80 461L86 461L86 458L80 458M151 458L151 461L157 461L157 458L151 458M318 458L318 461L324 461L324 458L318 458z"/>
<path style="fill:#6d6d00; stroke:none;" d="M332 458C334.613 459.098 337.165 458.993 340 459C337.387 457.902 334.836 458.007 332 458z"/>
<path style="fill:#586a6a; stroke:none;" d="M27.3333 459.667C27.2778 459.722 27.2223 460.778 27.6667 460.333C27.7223 460.278 27.7777 459.222 27.3333 459.667z"/>
<path style="fill:#338888; stroke:none;" d="M54 459C54.2107 461.739 54.3025 462.422 57 463C56.0449 461.233 55.4336 460.393 54 459z"/>
<path style="fill:#7f7f00; stroke:none;" d="M66 459C68.6128 460.098 71.1645 459.993 74 460C71.3873 458.902 68.8355 459.007 66 459z"/>
<path style="fill:#545454; stroke:none;" d="M247 459L247 462L253 462L253 459L247 459z"/>
<path style="fill:#7f7f00; stroke:none;" d="M332 459C334.613 460.098 337.165 459.993 340 460C337.387 458.902 334.836 459.007 332 459z"/>
<path style="fill:#919100; stroke:none;" d="M66 460C68.6128 461.098 71.1645 460.993 74 461C71.3873 459.902 68.8355 460.007 66 460M332 460C334.613 461.098 337.165 460.993 340 461C337.387 459.902 334.836 460.007 332 460z"/>
<path style="fill:#596c6c; stroke:none;" d="M374.333 460.667C374.278 460.722 374.222 461.778 374.667 461.333C374.722 461.278 374.778 460.222 374.333 460.667z"/>
<path style="fill:#7da2a2; stroke:none;" d="M27 461L26 465C27.6556 463.596 27.7511 463.046 27 461z"/>
<path style="fill:#4c5858; stroke:none;" d="M31 461C36.959 463.5 45.5639 462 52 462C46.041 459.5 37.4362 461 31 461z"/>
<path style="fill:#a3a300; stroke:none;" d="M66 461C68.6127 462.098 71.1645 461.993 74 462C71.3873 460.902 68.8355 461.007 66 461z"/>
<path style="fill:#787878; stroke:none;" d="M80 461L80 464L86 464L86 461L80 461M151 461L151 464L157 464L157 461L151 461M318 461L318 464L324 464L324 461L318 461z"/>
<path style="fill:#a3a300; stroke:none;" d="M332 461C334.613 462.098 337.165 461.993 340 462C337.387 460.902 334.836 461.007 332 461z"/>
<path style="fill:#339292; stroke:none;" d="M350 464L350 461C347.393 462.119 346.932 463.341 350 464z"/>
<path style="fill:#4c5858; stroke:none;" d="M351 461C356.715 463.398 364.831 462 371 462C365.285 459.602 357.169 461 351 461z"/>
<path style="fill:#b6b600; stroke:none;" d="M66 462C68.6127 463.098 71.1645 462.993 74 463C71.3873 461.902 68.8355 462.007 66 462z"/>
<path style="fill:#787878; stroke:none;" d="M247 462L247 465L253 465L253 462L247 462z"/>
<path style="fill:#b6b600; stroke:none;" d="M332 462C334.613 463.098 337.165 462.993 340 463C337.387 461.902 334.836 462.007 332 462z"/>
<path style="fill:#7fa5a5; stroke:none;" d="M374 462C374.307 464.123 374.382 464.686 376 466C375.489 464.048 375.267 463.543 374 462z"/>
<path style="fill:#4c5858; stroke:none;" d="M31 463C36.959 465.5 45.5639 464 52 464C46.041 461.5 37.4362 463 31 463z"/>
<path style="fill:#33bbbb; stroke:none;" d="M54 463L54 468L57 468L57 463L54 463z"/>
<path style="fill:#c8c800; stroke:none;" d="M66 463L66 465C68.8495 464.979 71.271 464.81 74 464C71.3873 462.902 68.8355 463.007 66 463M332 463C334.613 464.098 337.165 463.993 340 464C337.387 462.902 334.836 463.007 332 463z"/>
<path style="fill:#4c5858; stroke:none;" d="M351 463C356.715 465.398 364.831 464 371 464C365.285 461.602 357.169 463 351 463z"/>
<path style="fill:#9c9c9c; stroke:none;" d="M80 464L80 469L86 469L86 464L80 464M151 464L151 469L157 469L157 464L151 464M318 464L318 469L324 469L324 464L318 464z"/>
<path style="fill:#dada00; stroke:none;" d="M332 464C334.613 465.098 337.165 464.993 340 465C337.387 463.902 334.836 464.007 332 464z"/>
<path style="fill:#33cccc; stroke:none;" d="M347 464L347 467L349 467L349 464L347 464z"/>
<path style="fill:#8bb7b7; stroke:none;" d="M26 465L26 468L28 468L28 465L26 465z"/>
<path style="fill:#98caca; stroke:none;" d="M60 465C61.769 465.779 63.0359 465.912 65 466C63.231 465.221 61.9641 465.088 60 465z"/>
<path style="fill:#ffff00; stroke:none;" d="M66 465L66 467L73 467C70.6921 465.241 68.9077 465.083 66 465z"/>
<path style="fill:#9c9c9c; stroke:none;" d="M247 465L247 470L253 470L253 465L247 465z"/>
<path style="fill:#eded00; stroke:none;" d="M332 465L332 468L340 468L340 465L332 465z"/>
<path style="fill:#99cccc; stroke:none;" d="M374 466L374 468C375.635 467.455 375.455 467.635 376 466L374 466z"/>
<path style="fill:#4c5858; stroke:none;" d="M31 467C36.959 469.5 45.5638 468 52 468C46.041 465.5 37.4361 467 31 467z"/>
<path style="fill:#eded00; stroke:none;" d="M66 467C68.6127 468.098 71.1645 467.993 74 468C71.3873 466.902 68.8355 467.007 66 467z"/>
<path style="fill:#070707; stroke:none;" d="M89 467L89 477L148 477L148 467L89 467M256 467L256 477L315 477L315 467L256 467z"/>
<path style="fill:#338888; stroke:none;" d="M347 467C347.511 468.952 347.733 469.457 349 471L350 467L347 467z"/>
<path style="fill:#4c5858; stroke:none;" d="M351 467C356.715 469.398 364.831 468 371 468C365.285 465.602 357.169 467 351 467z"/>
<path style="fill:#739393; stroke:none;" d="M375 467C374.438 468.801 374.176 470.122 374 472C375.133 470.101 375.473 469.143 375 467z"/>
<path style="fill:#6a8686; stroke:none;" d="M27.3333 468.667C27.2779 468.722 27.2222 469.778 27.6667 469.333C27.7223 469.278 27.7777 468.222 27.3333 468.667z"/>
<path style="fill:#338888; stroke:none;" d="M54 468L54 472C55.6076 470.55 56.0643 469.949 57 468L54 468z"/>
<path style="fill:#dbdb00; stroke:none;" d="M66 468C68.6128 469.098 71.1645 468.993 74 469C71.3873 467.902 68.8355 468.007 66 468M332 468C334.613 469.098 337.165 468.993 340 469C337.387 467.902 334.836 468.007 332 468z"/>
<path style="fill:#c9c900; stroke:none;" d="M66 469C68.6128 470.098 71.1645 469.993 74 470C71.3873 468.902 68.8355 469.007 66 469z"/>
<path style="fill:#787878; stroke:none;" d="M80 469L80 472L86 472L86 469L80 469M151 469L151 472L157 472L157 469L151 469M318 469L318 472L324 472L324 469L318 469z"/>
<path style="fill:#c9c900; stroke:none;" d="M332 469C334.613 470.098 337.165 469.993 340 470C337.387 468.902 334.836 469.007 332 469z"/>
<path style="fill:#4c5858; stroke:none;" d="M351 469C356.715 471.398 364.831 470 371 470C365.285 467.602 357.169 469 351 469z"/>
<path style="fill:#546565; stroke:none;" d="M27.3333 470.667C27.2778 470.722 27.2222 471.778 27.6667 471.333C27.7223 471.278 27.7778 470.222 27.3333 470.667z"/>
<path style="fill:#b7b700; stroke:none;" d="M66 470C68.6128 471.098 71.1645 470.993 74 471C71.3873 469.902 68.8355 470.007 66 470z"/>
<path style="fill:#787878; stroke:none;" d="M247 470L247 473L253 473L253 470L247 470z"/>
<path style="fill:#b7b700; stroke:none;" d="M332 470C334.613 471.098 337.165 470.993 340 471C337.387 469.902 334.836 470.007 332 470z"/>
<path style="fill:#4e5c5c; stroke:none;" d="M37 471C38.2485 471.685 38.5483 471.749 40 472C38.7517 471.315 38.4515 471.251 37 471z"/>
<path style="fill:#6a8585; stroke:none;" d="M39 474C40.4567 472.897 40.8965 472.457 42 471C39.8764 471.899 39.8993 471.876 39 474z"/>
<path style="fill:#7ca0a0; stroke:none;" d="M40 474C42.3298 473.685 43.9176 473.098 46 472C43.1859 471.088 42.0173 471.926 40 474z"/>
<path style="fill:#a4a400; stroke:none;" d="M66 471C68.6127 472.098 71.1645 471.993 74 472C71.3873 470.902 68.8355 471.007 66 471M332 471C334.613 472.098 337.165 471.993 340 472C337.387 470.902 334.836 471.007 332 471z"/>
<path style="fill:#929200; stroke:none;" d="M66 472C68.6128 473.098 71.1645 472.993 74 473C71.3873 471.902 68.8355 472.007 66 472z"/>
<path style="fill:#545454; stroke:none;" d="M80 472L80 475L86 475L86 472L80 472M151 472L151 475L157 475L157 472L151 472M318 472L318 475L324 475L324 472L318 472z"/>
<path style="fill:#929200; stroke:none;" d="M332 472C334.613 473.098 337.165 472.993 340 473C337.387 471.902 334.836 472.007 332 472z"/>
<path style="fill:#607777; stroke:none;" d="M359 472L357 476C358.981 474.84 359.74 473.951 361 472L359 472z"/>
<path style="fill:#739393; stroke:none;" d="M360 473C362.046 473.751 362.596 473.656 364 472L360 473z"/>
<path style="fill:#808000; stroke:none;" d="M66 473C68.6127 474.098 71.1645 473.993 74 474C71.3873 472.902 68.8355 473.007 66 473z"/>
<path style="fill:#545454; stroke:none;" d="M247 473L247 476L253 476L253 473L247 473z"/>
<path style="fill:#808000; stroke:none;" d="M332 473C334.613 474.098 337.165 473.993 340 474C337.387 472.902 334.836 473.007 332 473z"/>
<path style="fill:#6a8585; stroke:none;" d="M37.3333 474.667C37.2778 474.722 37.2223 475.778 37.6667 475.333C37.7223 475.278 37.7778 474.222 37.3333 474.667z"/>
<path style="fill:#86afaf; stroke:none;" d="M44 474L44 476C45.6351 475.455 45.455 475.635 46 474L44 474z"/>
<path style="fill:#6e6e00; stroke:none;" d="M66 474C68.6128 475.098 71.1645 474.993 74 475C71.3873 473.902 68.8355 474.007 66 474M332 474C334.613 475.098 337.165 474.993 340 475C337.387 473.902 334.836 474.007 332 474z"/>
<path style="fill:#86afaf; stroke:none;" d="M365.333 474.667C365.278 474.722 365.222 475.778 365.667 475.333C365.722 475.278 365.778 474.222 365.333 474.667z"/>
<path style="fill:#772222; stroke:none;" d="M39 475L39 479C39.7102 477.24 39.7102 476.759 39 475z"/>
<path style="fill:#bb1111; stroke:none;" d="M40 475L40 479C40.7102 477.24 40.7102 476.759 40 475z"/>
<path style="fill:#ff0000; stroke:none;" d="M41 475L41 479C41.7102 477.24 41.7102 476.759 41 475z"/>
<path style="fill:#bb1111; stroke:none;" d="M42 475L42 479C42.7102 477.24 42.7102 476.759 42 475z"/>
<path style="fill:#749494; stroke:none;" d="M45 475L44 479C45.303 477.332 45.553 477.008 45 475z"/>
<path style="fill:#5c5c00; stroke:none;" d="M66 475C68.6128 476.098 71.1645 475.993 74 476C71.3873 474.902 68.8355 475.007 66 475M332 475C334.613 476.098 337.165 475.993 340 476C337.387 474.902 334.836 475.007 332 475z"/>
<path style="fill:#772222; stroke:none;" d="M360 475L360 479C360.71 477.24 360.71 476.759 360 475z"/>
<path style="fill:#bb1111; stroke:none;" d="M361 475L361 479C361.71 477.24 361.71 476.76 361 475z"/>
<path style="fill:#ff0000; stroke:none;" d="M362 475L362 479C362.71 477.24 362.71 476.759 362 475z"/>
<path style="fill:#bb1111; stroke:none;" d="M363 475L363 479C363.71 477.24 363.71 476.759 363 475z"/>
<path style="fill:#7ca0a0; stroke:none;" d="M37 476L37 480C37.7102 478.24 37.7102 477.759 37 476z"/>
<path style="fill:#494900; stroke:none;" d="M66 476C68.6128 477.098 71.1645 476.993 74 477C71.3873 475.902 68.8355 476.007 66 476M332 476C334.613 477.098 337.165 476.993 340 477C337.387 475.902 334.836 476.007 332 476z"/>
<path style="fill:#7ca0a0; stroke:none;" d="M357 476L357 478L359 478L359 476L357 476z"/>
<path style="fill:#6b8686; stroke:none;" d="M365 476L365 479C365.696 477.446 365.696 477.554 365 476z"/>
<path style="fill:#373700; stroke:none;" d="M66 477C68.6128 478.098 71.1645 477.993 74 478C71.3873 476.902 68.8355 477.007 66 477z"/>
<path style="fill:#181818; stroke:none;" d="M80 477L80 479L86 479L86 477L80 477z"/>
<path style="fill:#040404; stroke:none;" d="M89 477L89 486L148 486L148 477L89 477z"/>
<path style="fill:#181818; stroke:none;" d="M151 477L151 479L157 479L157 477L151 477z"/>
<path style="fill:#040404; stroke:none;" d="M256 477L256 486L315 486L315 477L256 477z"/>
<path style="fill:#181818; stroke:none;" d="M318 477L318 479L324 479L324 477L318 477z"/>
<path style="fill:#373700; stroke:none;" d="M332 477C334.613 478.098 337.165 477.993 340 478C337.387 476.902 334.836 477.007 332 477z"/>
<path style="fill:#98caca; stroke:none;" d="M33 478L34 479L33 478z"/>
<path style="fill:#586a6a; stroke:none;" d="M45 478L44 480L46 480C46 478.147 46.2997 478.65 45 478z"/>
<path style="fill:#98caca; stroke:none;" d="M49 478L50 479L49 478z"/>
<path style="fill:#252500; stroke:none;" d="M66 478C68.6128 479.098 71.1645 478.993 74 479C71.3873 477.902 68.8355 478.007 66 478z"/>
<path style="fill:#181818; stroke:none;" d="M247 478L247 480L253 480L253 478L247 478z"/>
<path style="fill:#252500; stroke:none;" d="M332 478C334.613 479.098 337.165 478.993 340 479C337.387 477.902 334.836 478.007 332 478z"/>
<path style="fill:#657e7e; stroke:none;" d="M353 478L354 479L353 478z"/>
<path style="fill:#98caca; stroke:none;" d="M354 478L355 479L354 478z"/>
<path style="fill:#8ebcbc; stroke:none;" d="M357.667 478.333C357.222 478.778 358.278 478.722 358.333 478.667C358.778 478.222 357.722 478.278 357.667 478.333z"/>
<path style="fill:#657e7e; stroke:none;" d="M368 478L369 479L368 478z"/>
<path style="fill:#98caca; stroke:none;" d="M369 478L370 479L369 478z"/>
<path style="fill:#5d7171; stroke:none;" d="M32 481C33.769 481.779 35.0359 481.912 37 482C35.231 481.221 33.964 481.088 32 481z"/>
<path style="fill:#87b0b0; stroke:none;" d="M37 481C39.8897 482.213 42.8741 481.998 46 482C43.1103 480.787 40.1259 481.002 37 481z"/>
<path style="fill:#6e8c8c; stroke:none;" d="M46 481C47.2485 481.685 47.5483 481.749 49 482C47.7517 481.315 47.4515 481.251 46 481z"/>
<path style="fill:#444d4d; stroke:none;" d="M49 481C50.506 481.683 51.3148 481.826 53 482C51.4939 481.317 50.6852 481.174 49 481z"/>
<path style="fill:#4e5c5c; stroke:none;" d="M352 481C353.248 481.685 353.548 481.749 355 482C353.752 481.315 353.452 481.251 352 481z"/>
<path style="fill:#6a8585; stroke:none;" d="M355.667 481.333C355.222 481.778 356.278 481.722 356.333 481.667C356.778 481.222 355.722 481.278 355.667 481.333z"/>
<path style="fill:#7ca0a0; stroke:none;" d="M357 481C358.248 481.685 358.548 481.749 360 482C358.752 481.315 358.452 481.251 357 481z"/>
<path style="fill:#98caca; stroke:none;" d="M360 481C361.248 481.685 361.548 481.749 363 482C361.752 481.315 361.452 481.251 360 481z"/>
<path style="fill:#6e8c8c; stroke:none;" d="M363 481C364.769 481.779 366.036 481.912 368 482C366.231 481.221 364.964 481.088 363 481z"/>
<path style="fill:#444d4d; stroke:none;" d="M368 481C369.506 481.683 370.315 481.826 372 482C370.494 481.317 369.685 481.174 368 481z"/>
<path style="fill:#0e0e0e; stroke:none;" d="M1047 507L1047 513L1050 513L1050 507L1047 507z"/>
<path style="fill:#232323; stroke:none;" d="M1050 507L1050 513L1053 513L1053 507L1050 507z"/>
<path style="fill:#464646; stroke:none;" d="M1055 507L1055 513L1058 513L1058 507L1055 507z"/>
<path style="fill:#5b5b5b; stroke:none;" d="M1058 507L1058 513L1061 513L1061 507L1058 507z"/>
<path style="fill:#707070; stroke:none;" d="M1061 507L1061 513L1064 513L1064 507L1061 507z"/>
<path style="fill:#868686; stroke:none;" d="M1064 507L1064 513L1067 513L1067 507L1064 507z"/>
<path style="fill:#717171; stroke:none;" d="M1067 507L1067 513L1070 513L1070 507L1067 507z"/>
<path style="fill:#5c5c5c; stroke:none;" d="M1070 507L1070 513L1073 513L1073 507L1070 507z"/>
<path style="fill:#474747; stroke:none;" d="M1073 507L1073 513L1076 513L1076 507L1073 507z"/>
<path style="fill:#242424; stroke:none;" d="M1078 507L1078 513L1081 513L1081 507L1078 507z"/>
<path style="fill:#0f0f0f; stroke:none;" d="M1081 507L1081 513L1083 513L1083 507L1081 507z"/>
<path style="fill:#777777; stroke:none;" d="M529 516L529 596C529 602.738 526.956 613.462 529.603 619.711C531.716 624.696 539.185 629.138 544 631L544 627C557.92 626.558 555 613.277 555 603L555 528C551.826 528 548.309 528.379 545.286 527.231C539.245 524.939 534.588 519.215 529 516z"/>
<path style="fill:#adadad; stroke:none;" d="M545.667 516.333C545.222 516.778 546.278 516.722 546.333 516.667C546.778 516.222 545.722 516.278 545.667 516.333z"/>
<path style="fill:#a6a6a6; stroke:none;" d="M545 527L592 527L592 516C577.414 516 552.833 510.971 545 527z"/>
<path style="fill:#9d9d9d; stroke:none;" d="M592 516L592 527L628 527L628 516L592 516z"/>
<path style="fill:#949494; stroke:none;" d="M628 516L628 527L664 527L664 516L628 516z"/>
<path style="fill:#8b8b8b; stroke:none;" d="M664 516L664 527L700 527L700 516L664 516z"/>
<path style="fill:#828282; stroke:none;" d="M700 516L700 527L736 527L736 516L700 516z"/>
<path style="fill:#797979; stroke:none;" d="M736 516L736 527L772 527L772 516L736 516z"/>
<path style="fill:#707070; stroke:none;" d="M772 516L772 527L808 527L808 516L772 516z"/>
<path style="fill:#676767; stroke:none;" d="M808 516L808 527L844 527L844 516L808 516z"/>
<path style="fill:#5e5e5e; stroke:none;" d="M844 516L844 527L880 527L880 516L844 516z"/>
<path style="fill:#555555; stroke:none;" d="M880 516L880 527L916 527L916 516L880 516z"/>
<path style="fill:#4c4c4c; stroke:none;" d="M916 516L916 527L952 527L952 516L916 516z"/>
<path style="fill:#434343; stroke:none;" d="M952 516L952 527L988 527L988 516L952 516z"/>
<path style="fill:#3a3a3a; stroke:none;" d="M988 516L988 527L1024 527L1024 516L988 516z"/>
<path style="fill:#2a2a2a; stroke:none;" d="M1052 516L1052 527L1088 527L1088 516L1052 516z"/>
<path style="fill:#212121; stroke:none;" d="M1088 516L1088 527L1124 527L1124 516L1088 516z"/>
<path style="fill:#181818; stroke:none;" d="M1124 516L1124 527L1160 527L1160 516L1124 516z"/>
<path style="fill:#0f0f0f; stroke:none;" d="M1160 516L1160 527L1196 527L1196 516L1160 516z"/>
<path style="fill:#060606; stroke:none;" d="M1196 516L1196 527L1236 527L1236 516L1196 516z"/>
<path style="fill:#777777; stroke:none;" d="M557 528L557 621C567.571 615.999 577.414 607.978 587 601.28C589.374 599.621 595.301 593.709 598.534 595.305C602.547 597.285 593.255 603.24 592 604.14C581.514 611.662 570.698 618.783 560 626C564.969 628.085 571.65 627 577 627L611 627L611 528L557 528z"/>
<path style="fill:#0e0e0e; stroke:none;" d="M1047 530L1047 536L1050 536L1050 530L1047 530z"/>
<path style="fill:#232323; stroke:none;" d="M1050 530L1050 536L1053 536L1053 530L1050 530z"/>
<path style="fill:#464646; stroke:none;" d="M1055 530L1055 536L1058 536L1058 530L1055 530z"/>
<path style="fill:#5b5b5b; stroke:none;" d="M1058 530L1058 536L1061 536L1061 530L1058 530z"/>
<path style="fill:#707070; stroke:none;" d="M1061 530L1061 536L1064 536L1064 530L1061 530z"/>
<path style="fill:#868686; stroke:none;" d="M1064 530L1064 536L1067 536L1067 530L1064 530z"/>
<path style="fill:#717171; stroke:none;" d="M1067 530L1067 536L1070 536L1070 530L1067 530z"/>
<path style="fill:#5c5c5c; stroke:none;" d="M1070 530L1070 536L1073 536L1073 530L1070 530z"/>
<path style="fill:#474747; stroke:none;" d="M1073 530L1073 536L1076 536L1076 530L1073 530z"/>
<path style="fill:#242424; stroke:none;" d="M1078 530L1078 536L1081 536L1081 530L1078 530z"/>
<path style="fill:#0f0f0f; stroke:none;" d="M1081 530L1081 536L1083 536L1083 530L1081 530z"/>
<path style="fill:#0e0e0e; stroke:none;" d="M1226 619L1226 625L1229 625L1229 619L1226 619z"/>
<path style="fill:#232323; stroke:none;" d="M1229 619L1229 625L1232 625L1232 619L1229 619z"/>
<path style="fill:#464646; stroke:none;" d="M1234 619L1234 625L1237 625L1237 619L1234 619z"/>
<path style="fill:#5b5b5b; stroke:none;" d="M1237 619L1237 625L1240 625L1240 619L1237 619z"/>
<path style="fill:#707070; stroke:none;" d="M1240 619L1240 625L1243 625L1243 619L1240 619z"/>
<path style="fill:#868686; stroke:none;" d="M1243 619L1243 625L1246 625L1246 619L1243 619z"/>
<path style="fill:#717171; stroke:none;" d="M1246 619L1246 625L1249 625L1249 619L1246 619z"/>
<path style="fill:#5c5c5c; stroke:none;" d="M1249 619L1249 625L1252 625L1252 619L1249 619z"/>
<path style="fill:#474747; stroke:none;" d="M1252 619L1252 625L1255 625L1255 619L1252 619z"/>
<path style="fill:#242424; stroke:none;" d="M1257 619L1257 625L1260 625L1260 619L1257 619z"/>
<path style="fill:#0f0f0f; stroke:none;" d="M1260 619L1260 625L1262 625L1262 619L1260 619z"/>
<path style="fill:#777777; stroke:none;" d="M529 628L529 708C529 714.738 526.956 725.462 529.603 731.711C531.716 736.696 539.185 741.138 544 743L544 739C557.92 738.558 555 725.277 555 715L555 640C551.826 640 548.309 640.379 545.286 639.231C539.245 636.939 534.588 631.215 529 628z"/>
<path style="fill:#adadad; stroke:none;" d="M545.667 628.333C545.222 628.778 546.278 628.722 546.333 628.667C546.778 628.222 545.722 628.278 545.667 628.333z"/>
<path style="fill:#a7a7a7; stroke:none;" d="M545 639L599 639L599 628L571 628C560.802 628 550.135 628.491 545 639z"/>
<path style="fill:#9e9e9e; stroke:none;" d="M599 628L599 639L644 639L644 628L599 628z"/>
<path style="fill:#959595; stroke:none;" d="M644 628L644 639L689 639L689 628L644 628z"/>
<path style="fill:#8c8c8c; stroke:none;" d="M689 628L689 639L734 639L734 628L689 628z"/>
<path style="fill:#868686; stroke:none;" d="M734 628L734 639L759 639L759 628L734 628z"/>
<path style="fill:#7d7d7d; stroke:none;" d="M759 628L759 639L804 639L804 628L759 628z"/>
<path style="fill:#747474; stroke:none;" d="M804 628L804 639L849 639L849 628L804 628z"/>
<path style="fill:#6b6b6b; stroke:none;" d="M849 628L849 639L894 639L894 628L849 628z"/>
<path style="fill:#626262; stroke:none;" d="M894 628L894 639L939 639L939 628L894 628z"/>
<path style="fill:#595959; stroke:none;" d="M939 628L939 639L969 639L969 628L939 628z"/>
<path style="fill:#525252; stroke:none;" d="M969 628L969 639L1014 639L1014 628L969 628z"/>
<path style="fill:#494949; stroke:none;" d="M1014 628L1014 639L1059 639L1059 628L1014 628z"/>
<path style="fill:#404040; stroke:none;" d="M1059 628L1059 639L1104 639L1104 628L1059 628z"/>
<path style="fill:#272727; stroke:none;" d="M1179 628L1179 639L1224 639L1224 628L1179 628z"/>
<path style="fill:#1e1e1e; stroke:none;" d="M1224 628L1224 639L1269 639L1269 628L1224 628z"/>
<path style="fill:#151515; stroke:none;" d="M1269 628L1269 639L1314 639L1314 628L1269 628z"/>
<path style="fill:#0c0c0c; stroke:none;" d="M1314 628L1314 639L1359 639L1359 628L1314 628z"/>
<path style="fill:#030303; stroke:none;" d="M1359 628L1359 639L1388 639L1388 628L1359 628z"/>
<path style="fill:#777777; stroke:none;" d="M557 640L557 733C567.571 727.999 577.414 719.978 587 713.28C589.374 711.621 595.301 705.709 598.534 707.305C602.547 709.285 593.255 715.24 592 716.14C581.514 723.662 570.698 730.783 560 738C564.969 740.085 571.65 739 577 739L611 739L611 640L557 640z"/>
<path style="fill:#0e0e0e; stroke:none;" d="M1226 642L1226 648L1229 648L1229 642L1226 642z"/>
<path style="fill:#232323; stroke:none;" d="M1229 642L1229 648L1232 648L1232 642L1229 642z"/>
<path style="fill:#464646; stroke:none;" d="M1234 642L1234 648L1237 648L1237 642L1234 642z"/>
<path style="fill:#5b5b5b; stroke:none;" d="M1237 642L1237 648L1240 648L1240 642L1237 642z"/>
<path style="fill:#707070; stroke:none;" d="M1240 642L1240 648L1243 648L1243 642L1240 642z"/>
<path style="fill:#868686; stroke:none;" d="M1243 642L1243 648L1246 648L1246 642L1243 642z"/>
<path style="fill:#717171; stroke:none;" d="M1246 642L1246 648L1249 648L1249 642L1246 642z"/>
<path style="fill:#5c5c5c; stroke:none;" d="M1249 642L1249 648L1252 648L1252 642L1249 642z"/>
<path style="fill:#474747; stroke:none;" d="M1252 642L1252 648L1255 648L1255 642L1252 642z"/>
<path style="fill:#242424; stroke:none;" d="M1257 642L1257 648L1260 648L1260 642L1257 642z"/>
<path style="fill:#0f0f0f; stroke:none;" d="M1260 642L1260 648L1262 648L1262 642L1260 642z"/>
<path style="fill:#0e0e0e; stroke:none;" d="M1384 731L1384 737L1387 737L1387 731L1384 731z"/>
<path style="fill:#232323; stroke:none;" d="M1387 731L1387 737L1390 737L1390 731L1387 731z"/>
<path style="fill:#464646; stroke:none;" d="M1392 731L1392 737L1395 737L1395 731L1392 731z"/>
<path style="fill:#5b5b5b; stroke:none;" d="M1395 731L1395 737L1398 737L1398 731L1395 731z"/>
<path style="fill:#707070; stroke:none;" d="M1398 731L1398 737L1401 737L1401 731L1398 731z"/>
<path style="fill:#868686; stroke:none;" d="M1401 731L1401 737L1404 737L1404 731L1401 731z"/>
<path style="fill:#717171; stroke:none;" d="M1404 731L1404 737L1407 737L1407 731L1404 731z"/>
<path style="fill:#5c5c5c; stroke:none;" d="M1407 731L1407 737L1410 737L1410 731L1407 731z"/>
<path style="fill:#474747; stroke:none;" d="M1410 731L1410 737L1413 737L1413 731L1410 731z"/>
<path style="fill:#242424; stroke:none;" d="M1415 731L1415 737L1418 737L1418 731L1415 731z"/>
<path style="fill:#0f0f0f; stroke:none;" d="M1418 731L1418 737L1420 737L1420 731L1418 731z"/>
<path style="fill:#777777; stroke:none;" d="M529 740L529 820C529 826.738 526.956 837.462 529.603 843.711C531.716 848.696 539.185 853.138 544 855L544 851C557.92 850.557 555 837.277 555 827L555 752C551.826 752 548.309 752.379 545.286 751.231C539.245 748.939 534.588 743.215 529 740z"/>
<path style="fill:#adadad; stroke:none;" d="M545.667 740.333C545.222 740.778 546.278 740.722 546.333 740.667C546.778 740.222 545.722 740.278 545.667 740.333z"/>
<path style="fill:#aaaaaa; stroke:none;" d="M545 751L592 751L592 740C577.414 740 552.833 734.971 545 751z"/>
<path style="fill:#a1a1a1; stroke:none;" d="M592 740L592 751L646 751L646 740L592 740z"/>
<path style="fill:#989898; stroke:none;" d="M646 740L646 751L688 751L688 740L646 740z"/>
<path style="fill:#909090; stroke:none;" d="M688 740L688 751L742 751L742 740L688 740z"/>
<path style="fill:#878787; stroke:none;" d="M742 740L742 751L796 751L796 740L742 740z"/>
<path style="fill:#7e7e7e; stroke:none;" d="M796 740L796 751L832 751L832 740L796 740z"/>
<path style="fill:#777777; stroke:none;" d="M832 740L832 751L886 751L886 740L832 740z"/>
<path style="fill:#6e6e6e; stroke:none;" d="M886 740L886 751L940 751L940 740L886 740z"/>
<path style="fill:#656565; stroke:none;" d="M940 740L940 751L976 751L976 740L940 740z"/>
<path style="fill:#5e5e5e; stroke:none;" d="M976 740L976 751L1030 751L1030 740L976 740z"/>
<path style="fill:#555555; stroke:none;" d="M1030 740L1030 751L1084 751L1084 740L1030 740z"/>
<path style="fill:#4c4c4c; stroke:none;" d="M1084 740L1084 751L1132 751L1132 740L1084 740z"/>
<path style="fill:#434343; stroke:none;" d="M1132 740L1132 751L1186 751L1186 740L1132 740z"/>
<path style="fill:#3a3a3a; stroke:none;" d="M1186 740L1186 751L1240 751L1240 740L1186 740z"/>
<path style="fill:#2a2a2a; stroke:none;" d="M1276 740L1276 751L1330 751L1330 740L1276 740z"/>
<path style="fill:#212121; stroke:none;" d="M1330 740L1330 751L1384 751L1384 740L1330 740z"/>
<path style="fill:#171717; stroke:none;" d="M1384 740L1384 751L1438 751L1438 740L1384 740z"/>
<path style="fill:#0e0e0e; stroke:none;" d="M1438 740L1438 751L1492 751L1492 740L1438 740z"/>
<path style="fill:#050505; stroke:none;" d="M1492 740L1492 751L1541 751L1541 740L1492 740z"/>
<path style="fill:#777777; stroke:none;" d="M557 752L557 845C567.571 839.999 577.414 831.978 587 825.28C589.374 823.621 595.301 817.709 598.534 819.305C602.547 821.285 593.255 827.24 592 828.14C581.514 835.663 570.698 842.783 560 850C564.969 852.085 571.65 851 577 851L611 851L611 752L557 752z"/>
<path style="fill:#0e0e0e; stroke:none;" d="M1384 754L1384 760L1387 760L1387 754L1384 754z"/>
<path style="fill:#232323; stroke:none;" d="M1387 754L1387 760L1390 760L1390 754L1387 754z"/>
<path style="fill:#464646; stroke:none;" d="M1392 754L1392 760L1395 760L1395 754L1392 754z"/>
<path style="fill:#5b5b5b; stroke:none;" d="M1395 754L1395 760L1398 760L1398 754L1395 754z"/>
<path style="fill:#707070; stroke:none;" d="M1398 754L1398 760L1401 760L1401 754L1398 754z"/>
<path style="fill:#868686; stroke:none;" d="M1401 754L1401 760L1404 760L1404 754L1401 754z"/>
<path style="fill:#717171; stroke:none;" d="M1404 754L1404 760L1407 760L1407 754L1404 754z"/>
<path style="fill:#5c5c5c; stroke:none;" d="M1407 754L1407 760L1410 760L1410 754L1407 754z"/>
<path style="fill:#474747; stroke:none;" d="M1410 754L1410 760L1413 760L1413 754L1410 754z"/>
<path style="fill:#242424; stroke:none;" d="M1415 754L1415 760L1418 760L1418 754L1415 754z"/>
<path style="fill:#0f0f0f; stroke:none;" d="M1418 754L1418 760L1420 760L1420 754L1418 754z"/>
<path style="fill:#040404; stroke:none;" d="M501 755L497 761C501.564 763.959 500 771.096 500 776L500 819L502 819L502 776C502 771.096 500.436 763.959 505 761C503.911 758.542 502.909 756.88 501 755M579 756L575 762C579.564 764.959 578 772.096 578 777L578 820L580 820L580 777C580 772.096 578.436 764.959 583 762C581.911 759.542 580.909 757.88 579 756z"/>
<path style="fill:#0e0e0e; stroke:none;" d="M1566 843L1566 849L1569 849L1569 843L1566 843z"/>
<path style="fill:#232323; stroke:none;" d="M1569 843L1569 849L1572 849L1572 843L1569 843z"/>
<path style="fill:#464646; stroke:none;" d="M1574 843L1574 849L1577 849L1577 843L1574 843z"/>
<path style="fill:#5b5b5b; stroke:none;" d="M1577 843L1577 849L1580 849L1580 843L1577 843z"/>
<path style="fill:#707070; stroke:none;" d="M1580 843L1580 849L1583 849L1583 843L1580 843z"/>
<path style="fill:#868686; stroke:none;" d="M1583 843L1583 849L1586 849L1586 843L1583 843z"/>
<path style="fill:#717171; stroke:none;" d="M1586 843L1586 849L1589 849L1589 843L1586 843z"/>
<path style="fill:#5c5c5c; stroke:none;" d="M1589 843L1589 849L1592 849L1592 843L1589 843z"/>
<path style="fill:#474747; stroke:none;" d="M1592 843L1592 849L1595 849L1595 843L1592 843z"/>
<path style="fill:#242424; stroke:none;" d="M1597 843L1597 849L1600 849L1600 843L1597 843z"/>
<path style="fill:#0f0f0f; stroke:none;" d="M1600 843L1600 849L1602 849L1602 843L1600 843z"/>
<path style="fill:#adadad; stroke:none;" d="M545.667 852.333C545.222 852.778 546.278 852.722 546.333 852.667C546.778 852.222 545.722 852.278 545.667 852.333z"/>
<path style="fill:#a8a8a8; stroke:none;" d="M545 863L614 863L614 852L578 852C571.875 852 565.041 851.156 559 852.228C553.415 853.218 547.428 858.032 545 863z"/>
<path style="fill:#9f9f9f; stroke:none;" d="M614 852L614 863L677 863L677 852L614 852z"/>
<path style="fill:#959595; stroke:none;" d="M677 852L677 863L740 863L740 852L677 852z"/>
<path style="fill:#8c8c8c; stroke:none;" d="M740 852L740 863L803 863L803 852L740 852z"/>
<path style="fill:#828282; stroke:none;" d="M803 852L803 863L866 863L866 852L803 852z"/>
<path style="fill:#797979; stroke:none;" d="M866 852L866 863L929 863L929 852L866 852z"/>
<path style="fill:#6f6f6f; stroke:none;" d="M929 852L929 863L992 863L992 852L929 852z"/>
<path style="fill:#666666; stroke:none;" d="M992 852L992 863L1055 863L1055 852L992 852z"/>
<path style="fill:#5c5c5c; stroke:none;" d="M1055 852L1055 863L1118 863L1118 852L1055 852z"/>
<path style="fill:#505050; stroke:none;" d="M1118 852L1118 863L1188 863L1188 852L1118 852z"/>
<path style="fill:#484848; stroke:none;" d="M1188 852L1188 863L1251 863L1251 852L1188 852z"/>
<path style="fill:#3f3f3f; stroke:none;" d="M1251 852L1251 863L1314 863L1314 852L1251 852z"/>
<path style="fill:#2a2a2a; stroke:none;" d="M1391 852L1391 863L1440 863L1440 852L1391 852z"/>
<path style="fill:#222222; stroke:none;" d="M1440 852L1440 863L1503 863L1503 852L1440 852z"/>
<path style="fill:#191919; stroke:none;" d="M1503 852L1503 863L1566 863L1566 852L1503 852z"/>
<path style="fill:#0f0f0f; stroke:none;" d="M1566 852L1566 863L1629 863L1629 852L1566 852z"/>
<path style="fill:#060606; stroke:none;" d="M1629 852L1629 863L1694 863L1694 852L1629 852z"/>
<path style="fill:#777777; stroke:none;" d="M557 864L557 902L611 902L611 864L557 864z"/>
<path style="fill:#0e0e0e; stroke:none;" d="M1566 866L1566 872L1569 872L1569 866L1566 866z"/>
<path style="fill:#232323; stroke:none;" d="M1569 866L1569 872L1572 872L1572 866L1569 866z"/>
<path style="fill:#464646; stroke:none;" d="M1574 866L1574 872L1577 872L1577 866L1574 866z"/>
<path style="fill:#5b5b5b; stroke:none;" d="M1577 866L1577 872L1580 872L1580 866L1577 866z"/>
<path style="fill:#707070; stroke:none;" d="M1580 866L1580 872L1583 872L1583 866L1580 866z"/>
<path style="fill:#868686; stroke:none;" d="M1583 866L1583 872L1586 872L1586 866L1583 866z"/>
<path style="fill:#717171; stroke:none;" d="M1586 866L1586 872L1589 872L1589 866L1586 866z"/>
<path style="fill:#5c5c5c; stroke:none;" d="M1589 866L1589 872L1592 872L1592 866L1589 866z"/>
<path style="fill:#474747; stroke:none;" d="M1592 866L1592 872L1595 872L1595 866L1592 866z"/>
<path style="fill:#242424; stroke:none;" d="M1597 866L1597 872L1600 872L1600 866L1597 866z"/>
<path style="fill:#0f0f0f; stroke:none;" d="M1600 866L1600 872L1602 872L1602 866L1600 866z"/>
<path style="fill:#888888; stroke:none;" d="M532 867C531.014 868.478 531 868.203 531 870C532.388 869.309 532.861 869.015 534 868L532 867z"/>
<path style="fill:#777777; stroke:none;" d="M616 867C611.563 877.498 611.565 893.488 616 904C618.349 901.299 618.855 898.518 619.41 895C620.684 886.924 621.674 873.523 616 867M532 904C533.373 901.943 533.043 901.276 532 899L535 900C535.46 889.292 536.615 879.615 534 869C530.08 871.16 529.588 874.696 529.17 879C528.373 887.197 528.774 896.366 532 904z"/>
<path style="fill:#888888; stroke:none;" d="M616 871L616 873L618 873L618 871L616 871M532 875L532 877L534 877L534 875L532 875M616 879L616 881L618 881L618 879L616 879M532 883L532 885L534 885L534 883L532 883M616 887L616 889L618 889L618 887L616 887M532 891L532 893L534 893L534 891L532 891M613 891C613.406 893.092 613.217 893.02 615 894C614.309 892.612 614.015 892.139 613 891M616 895L616 897L618 897L618 895L616 895M532 899L532 901L534 901L534 899L532 899z"/>
</svg>
